<mxfile host="app.diagrams.net" agent="Mozilla/5.0 (Windows NT 10.0; Win64; x64) AppleWebKit/537.36 (KHTML, like Gecko) Chrome/132.0.0.0 Safari/537.36" version="26.0.10">
  <diagram name="SEM_FK" id="dP0yt02PlU0eL7siYHHv">
    <mxGraphModel dx="3725" dy="1305" grid="1" gridSize="10" guides="1" tooltips="1" connect="1" arrows="1" fold="1" page="1" pageScale="1" pageWidth="1100" pageHeight="850" background="none" math="0" shadow="0">
      <root>
        <mxCell id="9aSAy0q2wmHGv-H-PZl3-0" />
        <mxCell id="9aSAy0q2wmHGv-H-PZl3-1" parent="9aSAy0q2wmHGv-H-PZl3-0" />
        <mxCell id="9aSAy0q2wmHGv-H-PZl3-2" value="STOP_TIMES" style="swimlane;html=1;fontStyle=0;childLayout=stackLayout;horizontal=1;startSize=26;fillColor=#e0e0e0;horizontalStack=0;resizeParent=1;resizeLast=0;collapsible=1;marginBottom=0;swimlaneFillColor=#ffffff;align=center;rounded=0;shadow=0;comic=0;labelBackgroundColor=none;strokeWidth=1;fontFamily=Verdana;fontSize=14" vertex="1" parent="9aSAy0q2wmHGv-H-PZl3-1">
          <mxGeometry x="-787" y="118" width="180" height="219" as="geometry" />
        </mxCell>
        <mxCell id="9aSAy0q2wmHGv-H-PZl3-3" value="&lt;span style=&quot;&quot;&gt;TRIP_ID&lt;/span&gt;" style="shape=partialRectangle;top=0;left=0;right=0;bottom=0;html=1;align=left;verticalAlign=middle;fillColor=none;spacingLeft=60;spacingRight=4;whiteSpace=wrap;overflow=hidden;rotatable=0;points=[[0,0.5],[1,0.5]];portConstraint=eastwest;dropTarget=0;fontStyle=5;" vertex="1" parent="9aSAy0q2wmHGv-H-PZl3-2">
          <mxGeometry y="26" width="180" height="30" as="geometry" />
        </mxCell>
        <mxCell id="9aSAy0q2wmHGv-H-PZl3-4" value="PK,FK" style="shape=partialRectangle;fontStyle=1;top=0;left=0;bottom=0;html=1;fillColor=none;align=left;verticalAlign=middle;spacingLeft=4;spacingRight=4;whiteSpace=wrap;overflow=hidden;rotatable=0;points=[];portConstraint=eastwest;part=1;" vertex="1" connectable="0" parent="9aSAy0q2wmHGv-H-PZl3-3">
          <mxGeometry width="56" height="30" as="geometry" />
        </mxCell>
        <mxCell id="9aSAy0q2wmHGv-H-PZl3-5" value="STOP_SEQUENCE" style="shape=partialRectangle;top=0;left=0;right=0;bottom=1;html=1;align=left;verticalAlign=middle;fillColor=none;spacingLeft=60;spacingRight=4;whiteSpace=wrap;overflow=hidden;rotatable=0;points=[[0,0.5],[1,0.5]];portConstraint=eastwest;dropTarget=0;fontStyle=5;" vertex="1" parent="9aSAy0q2wmHGv-H-PZl3-2">
          <mxGeometry y="56" width="180" height="30" as="geometry" />
        </mxCell>
        <mxCell id="9aSAy0q2wmHGv-H-PZl3-6" value="PK" style="shape=partialRectangle;fontStyle=1;top=0;left=0;bottom=0;html=1;fillColor=none;align=left;verticalAlign=middle;spacingLeft=4;spacingRight=4;whiteSpace=wrap;overflow=hidden;rotatable=0;points=[];portConstraint=eastwest;part=1;" vertex="1" connectable="0" parent="9aSAy0q2wmHGv-H-PZl3-5">
          <mxGeometry width="56" height="30" as="geometry" />
        </mxCell>
        <mxCell id="9aSAy0q2wmHGv-H-PZl3-7" value="&lt;span style=&quot;text-decoration-line: underline;&quot;&gt;STOP_ID&lt;/span&gt;" style="shape=partialRectangle;top=0;left=0;right=0;bottom=0;html=1;align=left;verticalAlign=top;fillColor=none;spacingLeft=60;spacingRight=4;whiteSpace=wrap;overflow=hidden;rotatable=0;points=[[0,0.5],[1,0.5]];portConstraint=eastwest;dropTarget=0;fontStyle=0" vertex="1" parent="9aSAy0q2wmHGv-H-PZl3-2">
          <mxGeometry y="86" width="180" height="26" as="geometry" />
        </mxCell>
        <mxCell id="9aSAy0q2wmHGv-H-PZl3-8" value="FK" style="shape=partialRectangle;top=0;left=0;bottom=0;html=1;fillColor=none;align=left;verticalAlign=top;spacingLeft=4;spacingRight=4;whiteSpace=wrap;overflow=hidden;rotatable=0;points=[];portConstraint=eastwest;part=1;" vertex="1" connectable="0" parent="9aSAy0q2wmHGv-H-PZl3-7">
          <mxGeometry width="56" height="26" as="geometry" />
        </mxCell>
        <mxCell id="9aSAy0q2wmHGv-H-PZl3-9" value="ARRIVAL_TIME" style="shape=partialRectangle;top=0;left=0;right=0;bottom=0;html=1;align=left;verticalAlign=top;fillColor=none;spacingLeft=60;spacingRight=4;whiteSpace=wrap;overflow=hidden;rotatable=0;points=[[0,0.5],[1,0.5]];portConstraint=eastwest;dropTarget=0;fontColor=light-dark(#050505, #ededed);" vertex="1" parent="9aSAy0q2wmHGv-H-PZl3-2">
          <mxGeometry y="112" width="180" height="26" as="geometry" />
        </mxCell>
        <mxCell id="9aSAy0q2wmHGv-H-PZl3-10" value="" style="shape=partialRectangle;top=0;left=0;bottom=0;html=1;fillColor=none;align=left;verticalAlign=top;spacingLeft=4;spacingRight=4;whiteSpace=wrap;overflow=hidden;rotatable=0;points=[];portConstraint=eastwest;part=1;" vertex="1" connectable="0" parent="9aSAy0q2wmHGv-H-PZl3-9">
          <mxGeometry width="56" height="26" as="geometry" />
        </mxCell>
        <mxCell id="9aSAy0q2wmHGv-H-PZl3-11" value="DEPARTURE_TIME" style="shape=partialRectangle;top=0;left=0;right=0;bottom=0;html=1;align=left;verticalAlign=top;fillColor=none;spacingLeft=60;spacingRight=4;whiteSpace=wrap;overflow=hidden;rotatable=0;points=[[0,0.5],[1,0.5]];portConstraint=eastwest;dropTarget=0;fontColor=light-dark(#050505, #ededed);" vertex="1" parent="9aSAy0q2wmHGv-H-PZl3-2">
          <mxGeometry y="138" width="180" height="26" as="geometry" />
        </mxCell>
        <mxCell id="9aSAy0q2wmHGv-H-PZl3-12" value="" style="shape=partialRectangle;top=0;left=0;bottom=0;html=1;fillColor=none;align=left;verticalAlign=top;spacingLeft=4;spacingRight=4;whiteSpace=wrap;overflow=hidden;rotatable=0;points=[];portConstraint=eastwest;part=1;" vertex="1" connectable="0" parent="9aSAy0q2wmHGv-H-PZl3-11">
          <mxGeometry width="56" height="26" as="geometry" />
        </mxCell>
        <mxCell id="9aSAy0q2wmHGv-H-PZl3-13" value="STOP_LON" style="shape=partialRectangle;top=0;left=0;right=0;bottom=0;html=1;align=left;verticalAlign=top;fillColor=none;spacingLeft=60;spacingRight=4;whiteSpace=wrap;overflow=hidden;rotatable=0;points=[[0,0.5],[1,0.5]];portConstraint=eastwest;dropTarget=0;fontColor=light-dark(#ff0000, #ededed);" vertex="1" parent="9aSAy0q2wmHGv-H-PZl3-2">
          <mxGeometry y="164" width="180" height="26" as="geometry" />
        </mxCell>
        <mxCell id="9aSAy0q2wmHGv-H-PZl3-14" value="" style="shape=partialRectangle;top=0;left=0;bottom=0;html=1;fillColor=none;align=left;verticalAlign=top;spacingLeft=4;spacingRight=4;whiteSpace=wrap;overflow=hidden;rotatable=0;points=[];portConstraint=eastwest;part=1;" vertex="1" connectable="0" parent="9aSAy0q2wmHGv-H-PZl3-13">
          <mxGeometry width="56" height="26" as="geometry" />
        </mxCell>
        <mxCell id="9aSAy0q2wmHGv-H-PZl3-15" value="STOP_LAT" style="shape=partialRectangle;top=0;left=0;right=0;bottom=0;html=1;align=left;verticalAlign=top;fillColor=none;spacingLeft=60;spacingRight=4;whiteSpace=wrap;overflow=hidden;rotatable=0;points=[[0,0.5],[1,0.5]];portConstraint=eastwest;dropTarget=0;fontColor=light-dark(#ff0000, #ededed);" vertex="1" parent="9aSAy0q2wmHGv-H-PZl3-2">
          <mxGeometry y="190" width="180" height="26" as="geometry" />
        </mxCell>
        <mxCell id="9aSAy0q2wmHGv-H-PZl3-16" value="" style="shape=partialRectangle;top=0;left=0;bottom=0;html=1;fillColor=none;align=left;verticalAlign=top;spacingLeft=4;spacingRight=4;whiteSpace=wrap;overflow=hidden;rotatable=0;points=[];portConstraint=eastwest;part=1;" vertex="1" connectable="0" parent="9aSAy0q2wmHGv-H-PZl3-15">
          <mxGeometry width="56" height="26" as="geometry" />
        </mxCell>
        <mxCell id="9aSAy0q2wmHGv-H-PZl3-17" value="TRIPS" style="swimlane;html=1;fontStyle=0;childLayout=stackLayout;horizontal=1;startSize=26;fillColor=#e0e0e0;horizontalStack=0;resizeParent=1;resizeLast=0;collapsible=1;marginBottom=0;swimlaneFillColor=#ffffff;align=center;rounded=0;shadow=0;comic=0;labelBackgroundColor=none;strokeWidth=1;fontFamily=Verdana;fontSize=14;swimlaneLine=1;" vertex="1" parent="9aSAy0q2wmHGv-H-PZl3-1">
          <mxGeometry x="-400" y="118" width="160" height="241" as="geometry" />
        </mxCell>
        <mxCell id="9aSAy0q2wmHGv-H-PZl3-18" value="TRIP_ID" style="shape=partialRectangle;top=0;left=0;right=0;bottom=1;html=1;align=left;verticalAlign=middle;fillColor=none;spacingLeft=34;spacingRight=4;whiteSpace=wrap;overflow=hidden;rotatable=0;points=[[0,0.5],[1,0.5]];portConstraint=eastwest;dropTarget=0;fontStyle=5;" vertex="1" parent="9aSAy0q2wmHGv-H-PZl3-17">
          <mxGeometry y="26" width="160" height="30" as="geometry" />
        </mxCell>
        <mxCell id="9aSAy0q2wmHGv-H-PZl3-19" value="PK" style="shape=partialRectangle;top=0;left=0;bottom=0;html=1;fillColor=none;align=left;verticalAlign=middle;spacingLeft=4;spacingRight=4;whiteSpace=wrap;overflow=hidden;rotatable=0;points=[];portConstraint=eastwest;part=1;" vertex="1" connectable="0" parent="9aSAy0q2wmHGv-H-PZl3-18">
          <mxGeometry width="30" height="30" as="geometry" />
        </mxCell>
        <mxCell id="9aSAy0q2wmHGv-H-PZl3-20" value="TRIP_HEADSIGN" style="shape=partialRectangle;top=0;left=0;right=0;bottom=0;html=1;align=left;verticalAlign=top;fillColor=none;spacingLeft=34;spacingRight=4;whiteSpace=wrap;overflow=hidden;rotatable=0;points=[[0,0.5],[1,0.5]];portConstraint=eastwest;dropTarget=0;" vertex="1" parent="9aSAy0q2wmHGv-H-PZl3-17">
          <mxGeometry y="56" width="160" height="26" as="geometry" />
        </mxCell>
        <mxCell id="9aSAy0q2wmHGv-H-PZl3-21" value="" style="shape=partialRectangle;top=0;left=0;bottom=0;html=1;fillColor=none;align=left;verticalAlign=top;spacingLeft=4;spacingRight=4;whiteSpace=wrap;overflow=hidden;rotatable=0;points=[];portConstraint=eastwest;part=1;" vertex="1" connectable="0" parent="9aSAy0q2wmHGv-H-PZl3-20">
          <mxGeometry width="30" height="26" as="geometry" />
        </mxCell>
        <mxCell id="9aSAy0q2wmHGv-H-PZl3-22" value="DIRECTION_ID" style="shape=partialRectangle;top=0;left=0;right=0;bottom=0;html=1;align=left;verticalAlign=top;fillColor=none;spacingLeft=34;spacingRight=4;whiteSpace=wrap;overflow=hidden;rotatable=0;points=[[0,0.5],[1,0.5]];portConstraint=eastwest;dropTarget=0;" vertex="1" parent="9aSAy0q2wmHGv-H-PZl3-17">
          <mxGeometry y="82" width="160" height="26" as="geometry" />
        </mxCell>
        <mxCell id="9aSAy0q2wmHGv-H-PZl3-23" value="" style="shape=partialRectangle;top=0;left=0;bottom=0;html=1;fillColor=none;align=left;verticalAlign=top;spacingLeft=4;spacingRight=4;whiteSpace=wrap;overflow=hidden;rotatable=0;points=[];portConstraint=eastwest;part=1;" vertex="1" connectable="0" parent="9aSAy0q2wmHGv-H-PZl3-22">
          <mxGeometry width="30" height="26" as="geometry" />
        </mxCell>
        <mxCell id="9aSAy0q2wmHGv-H-PZl3-24" value="ROUTE_ID" style="shape=partialRectangle;top=0;left=0;right=0;bottom=0;html=1;align=left;verticalAlign=top;fillColor=none;spacingLeft=34;spacingRight=4;whiteSpace=wrap;overflow=hidden;rotatable=0;points=[[0,0.5],[1,0.5]];portConstraint=eastwest;dropTarget=0;" vertex="1" parent="9aSAy0q2wmHGv-H-PZl3-17">
          <mxGeometry y="108" width="160" height="26" as="geometry" />
        </mxCell>
        <mxCell id="9aSAy0q2wmHGv-H-PZl3-25" value="FK" style="shape=partialRectangle;top=0;left=0;bottom=0;html=1;fillColor=none;align=left;verticalAlign=top;spacingLeft=4;spacingRight=4;whiteSpace=wrap;overflow=hidden;rotatable=0;points=[];portConstraint=eastwest;part=1;" vertex="1" connectable="0" parent="9aSAy0q2wmHGv-H-PZl3-24">
          <mxGeometry width="30" height="26" as="geometry" />
        </mxCell>
        <mxCell id="9aSAy0q2wmHGv-H-PZl3-26" value="SHAPE_ID" style="shape=partialRectangle;top=0;left=0;right=0;bottom=0;html=1;align=left;verticalAlign=top;fillColor=none;spacingLeft=34;spacingRight=4;whiteSpace=wrap;overflow=hidden;rotatable=0;points=[[0,0.5],[1,0.5]];portConstraint=eastwest;dropTarget=0;" vertex="1" parent="9aSAy0q2wmHGv-H-PZl3-17">
          <mxGeometry y="134" width="160" height="26" as="geometry" />
        </mxCell>
        <mxCell id="9aSAy0q2wmHGv-H-PZl3-27" value="FK" style="shape=partialRectangle;top=0;left=0;bottom=0;html=1;fillColor=none;align=left;verticalAlign=top;spacingLeft=4;spacingRight=4;whiteSpace=wrap;overflow=hidden;rotatable=0;points=[];portConstraint=eastwest;part=1;" vertex="1" connectable="0" parent="9aSAy0q2wmHGv-H-PZl3-26">
          <mxGeometry width="30" height="26" as="geometry" />
        </mxCell>
        <mxCell id="9aSAy0q2wmHGv-H-PZl3-28" value="ROUTE_LONGNAME" style="shape=partialRectangle;top=0;left=0;right=0;bottom=0;html=1;align=left;verticalAlign=top;fillColor=none;spacingLeft=34;spacingRight=4;whiteSpace=wrap;overflow=hidden;rotatable=0;points=[[0,0.5],[1,0.5]];portConstraint=eastwest;dropTarget=0;fontColor=light-dark(#ff0000, #ededed);" vertex="1" parent="9aSAy0q2wmHGv-H-PZl3-17">
          <mxGeometry y="160" width="160" height="26" as="geometry" />
        </mxCell>
        <mxCell id="9aSAy0q2wmHGv-H-PZl3-29" value="" style="shape=partialRectangle;top=0;left=0;bottom=0;html=1;fillColor=none;align=left;verticalAlign=top;spacingLeft=4;spacingRight=4;whiteSpace=wrap;overflow=hidden;rotatable=0;points=[];portConstraint=eastwest;part=1;" vertex="1" connectable="0" parent="9aSAy0q2wmHGv-H-PZl3-28">
          <mxGeometry width="30" height="26" as="geometry" />
        </mxCell>
        <mxCell id="9aSAy0q2wmHGv-H-PZl3-30" value="AGENCY" style="shape=partialRectangle;top=0;left=0;right=0;bottom=0;html=1;align=left;verticalAlign=top;fillColor=none;spacingLeft=34;spacingRight=4;whiteSpace=wrap;overflow=hidden;rotatable=0;points=[[0,0.5],[1,0.5]];portConstraint=eastwest;dropTarget=0;fontColor=light-dark(#ff0000, #ededed);" vertex="1" parent="9aSAy0q2wmHGv-H-PZl3-17">
          <mxGeometry y="186" width="160" height="26" as="geometry" />
        </mxCell>
        <mxCell id="9aSAy0q2wmHGv-H-PZl3-31" value="" style="shape=partialRectangle;top=0;left=0;bottom=0;html=1;fillColor=none;align=left;verticalAlign=top;spacingLeft=4;spacingRight=4;whiteSpace=wrap;overflow=hidden;rotatable=0;points=[];portConstraint=eastwest;part=1;" vertex="1" connectable="0" parent="9aSAy0q2wmHGv-H-PZl3-30">
          <mxGeometry width="30" height="26" as="geometry" />
        </mxCell>
        <mxCell id="9aSAy0q2wmHGv-H-PZl3-32" value="DURATION_TIME" style="shape=partialRectangle;top=0;left=0;right=0;bottom=0;html=1;align=left;verticalAlign=top;fillColor=none;spacingLeft=34;spacingRight=4;whiteSpace=wrap;overflow=hidden;rotatable=0;points=[[0,0.5],[1,0.5]];portConstraint=eastwest;dropTarget=0;fontColor=light-dark(#ff0000, #ededed);" vertex="1" parent="9aSAy0q2wmHGv-H-PZl3-17">
          <mxGeometry y="212" width="160" height="26" as="geometry" />
        </mxCell>
        <mxCell id="9aSAy0q2wmHGv-H-PZl3-33" value="" style="shape=partialRectangle;top=0;left=0;bottom=0;html=1;fillColor=none;align=left;verticalAlign=top;spacingLeft=4;spacingRight=4;whiteSpace=wrap;overflow=hidden;rotatable=0;points=[];portConstraint=eastwest;part=1;" vertex="1" connectable="0" parent="9aSAy0q2wmHGv-H-PZl3-32">
          <mxGeometry width="30" height="26" as="geometry" />
        </mxCell>
        <mxCell id="9aSAy0q2wmHGv-H-PZl3-34" value="ROUTES" style="swimlane;html=1;fontStyle=0;childLayout=stackLayout;horizontal=1;startSize=26;fillColor=#e0e0e0;horizontalStack=0;resizeParent=1;resizeLast=0;collapsible=1;marginBottom=0;swimlaneFillColor=#ffffff;align=center;rounded=0;shadow=0;comic=0;labelBackgroundColor=none;strokeWidth=1;fontFamily=Verdana;fontSize=14" vertex="1" parent="9aSAy0q2wmHGv-H-PZl3-1">
          <mxGeometry x="131" y="60" width="220" height="110" as="geometry" />
        </mxCell>
        <mxCell id="9aSAy0q2wmHGv-H-PZl3-35" value="ROUTE_ID" style="shape=partialRectangle;top=0;left=0;right=0;bottom=1;html=1;align=left;verticalAlign=middle;fillColor=none;spacingLeft=60;spacingRight=4;whiteSpace=wrap;overflow=hidden;rotatable=0;points=[[0,0.5],[1,0.5]];portConstraint=eastwest;dropTarget=0;fontStyle=5;" vertex="1" parent="9aSAy0q2wmHGv-H-PZl3-34">
          <mxGeometry y="26" width="220" height="30" as="geometry" />
        </mxCell>
        <mxCell id="9aSAy0q2wmHGv-H-PZl3-36" value="PK" style="shape=partialRectangle;fontStyle=1;top=0;left=0;bottom=0;html=1;fillColor=none;align=left;verticalAlign=middle;spacingLeft=4;spacingRight=4;whiteSpace=wrap;overflow=hidden;rotatable=0;points=[];portConstraint=eastwest;part=1;" vertex="1" connectable="0" parent="9aSAy0q2wmHGv-H-PZl3-35">
          <mxGeometry width="56" height="30" as="geometry" />
        </mxCell>
        <mxCell id="9aSAy0q2wmHGv-H-PZl3-37" value="ROUTE_LONG_NAME" style="shape=partialRectangle;top=0;left=0;right=0;bottom=0;html=1;align=left;verticalAlign=top;fillColor=none;spacingLeft=60;spacingRight=4;whiteSpace=wrap;overflow=hidden;rotatable=0;points=[[0,0.5],[1,0.5]];portConstraint=eastwest;dropTarget=0;" vertex="1" parent="9aSAy0q2wmHGv-H-PZl3-34">
          <mxGeometry y="56" width="220" height="26" as="geometry" />
        </mxCell>
        <mxCell id="9aSAy0q2wmHGv-H-PZl3-38" value="" style="shape=partialRectangle;top=0;left=0;bottom=0;html=1;fillColor=none;align=left;verticalAlign=top;spacingLeft=4;spacingRight=4;whiteSpace=wrap;overflow=hidden;rotatable=0;points=[];portConstraint=eastwest;part=1;" vertex="1" connectable="0" parent="9aSAy0q2wmHGv-H-PZl3-37">
          <mxGeometry width="56" height="26" as="geometry" />
        </mxCell>
        <mxCell id="9aSAy0q2wmHGv-H-PZl3-39" value="AGENCY" style="shape=partialRectangle;top=0;left=0;right=0;bottom=0;html=1;align=left;verticalAlign=top;fillColor=none;spacingLeft=60;spacingRight=4;whiteSpace=wrap;overflow=hidden;rotatable=0;points=[[0,0.5],[1,0.5]];portConstraint=eastwest;dropTarget=0;" vertex="1" parent="9aSAy0q2wmHGv-H-PZl3-34">
          <mxGeometry y="82" width="220" height="26" as="geometry" />
        </mxCell>
        <mxCell id="9aSAy0q2wmHGv-H-PZl3-40" value="" style="shape=partialRectangle;top=0;left=0;bottom=0;html=1;fillColor=none;align=left;verticalAlign=top;spacingLeft=4;spacingRight=4;whiteSpace=wrap;overflow=hidden;rotatable=0;points=[];portConstraint=eastwest;part=1;" vertex="1" connectable="0" parent="9aSAy0q2wmHGv-H-PZl3-39">
          <mxGeometry width="56" height="26" as="geometry" />
        </mxCell>
        <mxCell id="9aSAy0q2wmHGv-H-PZl3-41" value="LINHAS" style="swimlane;html=1;fontStyle=0;childLayout=stackLayout;horizontal=1;startSize=26;fillColor=#e0e0e0;horizontalStack=0;resizeParent=1;resizeLast=0;collapsible=1;marginBottom=0;swimlaneFillColor=#ffffff;align=center;rounded=0;shadow=0;comic=0;labelBackgroundColor=none;strokeWidth=1;fontFamily=Verdana;fontSize=14" vertex="1" parent="9aSAy0q2wmHGv-H-PZl3-1">
          <mxGeometry x="-406" y="632" width="160" height="212" as="geometry" />
        </mxCell>
        <mxCell id="9aSAy0q2wmHGv-H-PZl3-42" value="CL" style="shape=partialRectangle;top=0;left=0;right=0;bottom=1;html=1;align=left;verticalAlign=middle;fillColor=none;spacingLeft=60;spacingRight=4;whiteSpace=wrap;overflow=hidden;rotatable=0;points=[[0,0.5],[1,0.5]];portConstraint=eastwest;dropTarget=0;fontStyle=5;" vertex="1" parent="9aSAy0q2wmHGv-H-PZl3-41">
          <mxGeometry y="26" width="160" height="30" as="geometry" />
        </mxCell>
        <mxCell id="9aSAy0q2wmHGv-H-PZl3-43" value="PK,FK" style="shape=partialRectangle;fontStyle=1;top=0;left=0;bottom=0;html=1;fillColor=none;align=left;verticalAlign=middle;spacingLeft=4;spacingRight=4;whiteSpace=wrap;overflow=hidden;rotatable=0;points=[];portConstraint=eastwest;part=1;" vertex="1" connectable="0" parent="9aSAy0q2wmHGv-H-PZl3-42">
          <mxGeometry width="56" height="30" as="geometry" />
        </mxCell>
        <mxCell id="9aSAy0q2wmHGv-H-PZl3-44" value="LC" style="shape=partialRectangle;top=0;left=0;right=0;bottom=0;html=1;align=left;verticalAlign=top;fillColor=none;spacingLeft=60;spacingRight=4;whiteSpace=wrap;overflow=hidden;rotatable=0;points=[[0,0.5],[1,0.5]];portConstraint=eastwest;dropTarget=0;" vertex="1" parent="9aSAy0q2wmHGv-H-PZl3-41">
          <mxGeometry y="56" width="160" height="26" as="geometry" />
        </mxCell>
        <mxCell id="9aSAy0q2wmHGv-H-PZl3-45" value="" style="shape=partialRectangle;top=0;left=0;bottom=0;html=1;fillColor=none;align=left;verticalAlign=top;spacingLeft=4;spacingRight=4;whiteSpace=wrap;overflow=hidden;rotatable=0;points=[];portConstraint=eastwest;part=1;" vertex="1" connectable="0" parent="9aSAy0q2wmHGv-H-PZl3-44">
          <mxGeometry width="56" height="26" as="geometry" />
        </mxCell>
        <mxCell id="9aSAy0q2wmHGv-H-PZl3-46" value="LT" style="shape=partialRectangle;top=0;left=0;right=0;bottom=0;html=1;align=left;verticalAlign=top;fillColor=none;spacingLeft=60;spacingRight=4;whiteSpace=wrap;overflow=hidden;rotatable=0;points=[[0,0.5],[1,0.5]];portConstraint=eastwest;dropTarget=0;" vertex="1" parent="9aSAy0q2wmHGv-H-PZl3-41">
          <mxGeometry y="82" width="160" height="26" as="geometry" />
        </mxCell>
        <mxCell id="9aSAy0q2wmHGv-H-PZl3-47" value="" style="shape=partialRectangle;top=0;left=0;bottom=0;html=1;fillColor=none;align=left;verticalAlign=top;spacingLeft=4;spacingRight=4;whiteSpace=wrap;overflow=hidden;rotatable=0;points=[];portConstraint=eastwest;part=1;" vertex="1" connectable="0" parent="9aSAy0q2wmHGv-H-PZl3-46">
          <mxGeometry width="56" height="26" as="geometry" />
        </mxCell>
        <mxCell id="9aSAy0q2wmHGv-H-PZl3-48" value="TL" style="shape=partialRectangle;top=0;left=0;right=0;bottom=0;html=1;align=left;verticalAlign=top;fillColor=none;spacingLeft=60;spacingRight=4;whiteSpace=wrap;overflow=hidden;rotatable=0;points=[[0,0.5],[1,0.5]];portConstraint=eastwest;dropTarget=0;" vertex="1" parent="9aSAy0q2wmHGv-H-PZl3-41">
          <mxGeometry y="108" width="160" height="26" as="geometry" />
        </mxCell>
        <mxCell id="9aSAy0q2wmHGv-H-PZl3-49" value="" style="shape=partialRectangle;top=0;left=0;bottom=0;html=1;fillColor=none;align=left;verticalAlign=top;spacingLeft=4;spacingRight=4;whiteSpace=wrap;overflow=hidden;rotatable=0;points=[];portConstraint=eastwest;part=1;" vertex="1" connectable="0" parent="9aSAy0q2wmHGv-H-PZl3-48">
          <mxGeometry width="56" height="26" as="geometry" />
        </mxCell>
        <mxCell id="9aSAy0q2wmHGv-H-PZl3-50" value="SL" style="shape=partialRectangle;top=0;left=0;right=0;bottom=0;html=1;align=left;verticalAlign=top;fillColor=none;spacingLeft=60;spacingRight=4;whiteSpace=wrap;overflow=hidden;rotatable=0;points=[[0,0.5],[1,0.5]];portConstraint=eastwest;dropTarget=0;" vertex="1" parent="9aSAy0q2wmHGv-H-PZl3-41">
          <mxGeometry y="134" width="160" height="26" as="geometry" />
        </mxCell>
        <mxCell id="9aSAy0q2wmHGv-H-PZl3-51" value="" style="shape=partialRectangle;top=0;left=0;bottom=0;html=1;fillColor=none;align=left;verticalAlign=top;spacingLeft=4;spacingRight=4;whiteSpace=wrap;overflow=hidden;rotatable=0;points=[];portConstraint=eastwest;part=1;" vertex="1" connectable="0" parent="9aSAy0q2wmHGv-H-PZl3-50">
          <mxGeometry width="56" height="26" as="geometry" />
        </mxCell>
        <mxCell id="9aSAy0q2wmHGv-H-PZl3-52" value="TP" style="shape=partialRectangle;top=0;left=0;right=0;bottom=0;html=1;align=left;verticalAlign=top;fillColor=none;spacingLeft=60;spacingRight=4;whiteSpace=wrap;overflow=hidden;rotatable=0;points=[[0,0.5],[1,0.5]];portConstraint=eastwest;dropTarget=0;" vertex="1" parent="9aSAy0q2wmHGv-H-PZl3-41">
          <mxGeometry y="160" width="160" height="26" as="geometry" />
        </mxCell>
        <mxCell id="9aSAy0q2wmHGv-H-PZl3-53" value="" style="shape=partialRectangle;top=0;left=0;bottom=0;html=1;fillColor=none;align=left;verticalAlign=top;spacingLeft=4;spacingRight=4;whiteSpace=wrap;overflow=hidden;rotatable=0;points=[];portConstraint=eastwest;part=1;" vertex="1" connectable="0" parent="9aSAy0q2wmHGv-H-PZl3-52">
          <mxGeometry width="56" height="26" as="geometry" />
        </mxCell>
        <mxCell id="9aSAy0q2wmHGv-H-PZl3-54" value="TS" style="shape=partialRectangle;top=0;left=0;right=0;bottom=0;html=1;align=left;verticalAlign=top;fillColor=none;spacingLeft=60;spacingRight=4;whiteSpace=wrap;overflow=hidden;rotatable=0;points=[[0,0.5],[1,0.5]];portConstraint=eastwest;dropTarget=0;" vertex="1" parent="9aSAy0q2wmHGv-H-PZl3-41">
          <mxGeometry y="186" width="160" height="26" as="geometry" />
        </mxCell>
        <mxCell id="9aSAy0q2wmHGv-H-PZl3-55" value="" style="shape=partialRectangle;top=0;left=0;bottom=0;html=1;fillColor=none;align=left;verticalAlign=top;spacingLeft=4;spacingRight=4;whiteSpace=wrap;overflow=hidden;rotatable=0;points=[];portConstraint=eastwest;part=1;" vertex="1" connectable="0" parent="9aSAy0q2wmHGv-H-PZl3-54">
          <mxGeometry width="56" height="26" as="geometry" />
        </mxCell>
        <mxCell id="9aSAy0q2wmHGv-H-PZl3-56" value="SHAPES" style="swimlane;html=1;fontStyle=0;childLayout=stackLayout;horizontal=1;startSize=26;fillColor=#e0e0e0;horizontalStack=0;resizeParent=1;resizeLast=0;collapsible=1;marginBottom=0;swimlaneFillColor=#ffffff;align=center;rounded=0;shadow=0;comic=0;labelBackgroundColor=none;strokeWidth=1;fontFamily=Verdana;fontSize=14" vertex="1" parent="9aSAy0q2wmHGv-H-PZl3-1">
          <mxGeometry x="131" y="224" width="220" height="326" as="geometry" />
        </mxCell>
        <mxCell id="9aSAy0q2wmHGv-H-PZl3-57" value="SHAPE_ID" style="shape=partialRectangle;top=0;left=0;right=0;bottom=0;html=1;align=left;verticalAlign=middle;fillColor=none;spacingLeft=60;spacingRight=4;whiteSpace=wrap;overflow=hidden;rotatable=0;points=[[0,0.5],[1,0.5]];portConstraint=eastwest;dropTarget=0;fontStyle=5;" vertex="1" parent="9aSAy0q2wmHGv-H-PZl3-56">
          <mxGeometry y="26" width="220" height="30" as="geometry" />
        </mxCell>
        <mxCell id="9aSAy0q2wmHGv-H-PZl3-58" value="PK" style="shape=partialRectangle;fontStyle=1;top=0;left=0;bottom=0;html=1;fillColor=none;align=left;verticalAlign=middle;spacingLeft=4;spacingRight=4;whiteSpace=wrap;overflow=hidden;rotatable=0;points=[];portConstraint=eastwest;part=1;" vertex="1" connectable="0" parent="9aSAy0q2wmHGv-H-PZl3-57">
          <mxGeometry width="56" height="30" as="geometry" />
        </mxCell>
        <mxCell id="9aSAy0q2wmHGv-H-PZl3-59" value="SHAPE_PT_SEQUENCE" style="shape=partialRectangle;top=0;left=0;right=0;bottom=1;html=1;align=left;verticalAlign=middle;fillColor=none;spacingLeft=60;spacingRight=4;whiteSpace=wrap;overflow=hidden;rotatable=0;points=[[0,0.5],[1,0.5]];portConstraint=eastwest;dropTarget=0;fontStyle=5;" vertex="1" parent="9aSAy0q2wmHGv-H-PZl3-56">
          <mxGeometry y="56" width="220" height="30" as="geometry" />
        </mxCell>
        <mxCell id="9aSAy0q2wmHGv-H-PZl3-60" value="PK" style="shape=partialRectangle;fontStyle=1;top=0;left=0;bottom=0;html=1;fillColor=none;align=left;verticalAlign=middle;spacingLeft=4;spacingRight=4;whiteSpace=wrap;overflow=hidden;rotatable=0;points=[];portConstraint=eastwest;part=1;" vertex="1" connectable="0" parent="9aSAy0q2wmHGv-H-PZl3-59">
          <mxGeometry width="56" height="30" as="geometry" />
        </mxCell>
        <mxCell id="9aSAy0q2wmHGv-H-PZl3-61" value="SHAPE_PT_LAT" style="shape=partialRectangle;top=0;left=0;right=0;bottom=0;html=1;align=left;verticalAlign=top;fillColor=none;spacingLeft=60;spacingRight=4;whiteSpace=wrap;overflow=hidden;rotatable=0;points=[[0,0.5],[1,0.5]];portConstraint=eastwest;dropTarget=0;" vertex="1" parent="9aSAy0q2wmHGv-H-PZl3-56">
          <mxGeometry y="86" width="220" height="26" as="geometry" />
        </mxCell>
        <mxCell id="9aSAy0q2wmHGv-H-PZl3-62" value="" style="shape=partialRectangle;top=0;left=0;bottom=0;html=1;fillColor=none;align=left;verticalAlign=top;spacingLeft=4;spacingRight=4;whiteSpace=wrap;overflow=hidden;rotatable=0;points=[];portConstraint=eastwest;part=1;" vertex="1" connectable="0" parent="9aSAy0q2wmHGv-H-PZl3-61">
          <mxGeometry width="56" height="26" as="geometry" />
        </mxCell>
        <mxCell id="9aSAy0q2wmHGv-H-PZl3-63" value="SHAPE_PT_LON" style="shape=partialRectangle;top=0;left=0;right=0;bottom=0;html=1;align=left;verticalAlign=top;fillColor=none;spacingLeft=60;spacingRight=4;whiteSpace=wrap;overflow=hidden;rotatable=0;points=[[0,0.5],[1,0.5]];portConstraint=eastwest;dropTarget=0;" vertex="1" parent="9aSAy0q2wmHGv-H-PZl3-56">
          <mxGeometry y="112" width="220" height="26" as="geometry" />
        </mxCell>
        <mxCell id="9aSAy0q2wmHGv-H-PZl3-64" value="" style="shape=partialRectangle;top=0;left=0;bottom=0;html=1;fillColor=none;align=left;verticalAlign=top;spacingLeft=4;spacingRight=4;whiteSpace=wrap;overflow=hidden;rotatable=0;points=[];portConstraint=eastwest;part=1;" vertex="1" connectable="0" parent="9aSAy0q2wmHGv-H-PZl3-63">
          <mxGeometry width="56" height="26" as="geometry" />
        </mxCell>
        <mxCell id="9aSAy0q2wmHGv-H-PZl3-65" value="SHAPE_DIST_TRAVELED" style="shape=partialRectangle;top=0;left=0;right=0;bottom=0;html=1;align=left;verticalAlign=top;fillColor=none;spacingLeft=60;spacingRight=4;whiteSpace=wrap;overflow=hidden;rotatable=0;points=[[0,0.5],[1,0.5]];portConstraint=eastwest;dropTarget=0;" vertex="1" parent="9aSAy0q2wmHGv-H-PZl3-56">
          <mxGeometry y="138" width="220" height="26" as="geometry" />
        </mxCell>
        <mxCell id="9aSAy0q2wmHGv-H-PZl3-66" value="" style="shape=partialRectangle;top=0;left=0;bottom=0;html=1;fillColor=none;align=left;verticalAlign=top;spacingLeft=4;spacingRight=4;whiteSpace=wrap;overflow=hidden;rotatable=0;points=[];portConstraint=eastwest;part=1;" vertex="1" connectable="0" parent="9aSAy0q2wmHGv-H-PZl3-65">
          <mxGeometry width="56" height="26" as="geometry" />
        </mxCell>
        <mxCell id="9aSAy0q2wmHGv-H-PZl3-67" value="TRIP_ID" style="shape=partialRectangle;top=0;left=0;right=0;bottom=0;html=1;align=left;verticalAlign=top;fillColor=none;spacingLeft=60;spacingRight=4;whiteSpace=wrap;overflow=hidden;rotatable=0;points=[[0,0.5],[1,0.5]];portConstraint=eastwest;dropTarget=0;fontColor=light-dark(#ff0000, #ededed);" vertex="1" parent="9aSAy0q2wmHGv-H-PZl3-56">
          <mxGeometry y="164" width="220" height="26" as="geometry" />
        </mxCell>
        <mxCell id="9aSAy0q2wmHGv-H-PZl3-68" value="FK" style="shape=partialRectangle;top=0;left=0;bottom=0;html=1;fillColor=none;align=left;verticalAlign=top;spacingLeft=4;spacingRight=4;whiteSpace=wrap;overflow=hidden;rotatable=0;points=[];portConstraint=eastwest;part=1;" vertex="1" connectable="0" parent="9aSAy0q2wmHGv-H-PZl3-67">
          <mxGeometry width="56" height="26" as="geometry" />
        </mxCell>
        <mxCell id="9aSAy0q2wmHGv-H-PZl3-69" value="ROUTE_ID" style="shape=partialRectangle;top=0;left=0;right=0;bottom=0;html=1;align=left;verticalAlign=top;fillColor=none;spacingLeft=60;spacingRight=4;whiteSpace=wrap;overflow=hidden;rotatable=0;points=[[0,0.5],[1,0.5]];portConstraint=eastwest;dropTarget=0;fontColor=light-dark(#ff0000, #ededed);" vertex="1" parent="9aSAy0q2wmHGv-H-PZl3-56">
          <mxGeometry y="190" width="220" height="26" as="geometry" />
        </mxCell>
        <mxCell id="9aSAy0q2wmHGv-H-PZl3-70" value="FK" style="shape=partialRectangle;top=0;left=0;bottom=0;html=1;fillColor=none;align=left;verticalAlign=top;spacingLeft=4;spacingRight=4;whiteSpace=wrap;overflow=hidden;rotatable=0;points=[];portConstraint=eastwest;part=1;" vertex="1" connectable="0" parent="9aSAy0q2wmHGv-H-PZl3-69">
          <mxGeometry width="56" height="26" as="geometry" />
        </mxCell>
        <mxCell id="9aSAy0q2wmHGv-H-PZl3-71" value="ROUTE_LONG_NAME" style="shape=partialRectangle;top=0;left=0;right=0;bottom=0;html=1;align=left;verticalAlign=top;fillColor=none;spacingLeft=60;spacingRight=4;whiteSpace=wrap;overflow=hidden;rotatable=0;points=[[0,0.5],[1,0.5]];portConstraint=eastwest;dropTarget=0;fontColor=light-dark(#ff0000, #ededed);" vertex="1" parent="9aSAy0q2wmHGv-H-PZl3-56">
          <mxGeometry y="216" width="220" height="26" as="geometry" />
        </mxCell>
        <mxCell id="9aSAy0q2wmHGv-H-PZl3-72" value="" style="shape=partialRectangle;top=0;left=0;bottom=0;html=1;fillColor=none;align=left;verticalAlign=top;spacingLeft=4;spacingRight=4;whiteSpace=wrap;overflow=hidden;rotatable=0;points=[];portConstraint=eastwest;part=1;" vertex="1" connectable="0" parent="9aSAy0q2wmHGv-H-PZl3-71">
          <mxGeometry width="56" height="26" as="geometry" />
        </mxCell>
        <mxCell id="9aSAy0q2wmHGv-H-PZl3-73" value="AGENCY" style="shape=partialRectangle;top=0;left=0;right=0;bottom=0;html=1;align=left;verticalAlign=top;fillColor=none;spacingLeft=60;spacingRight=4;whiteSpace=wrap;overflow=hidden;rotatable=0;points=[[0,0.5],[1,0.5]];portConstraint=eastwest;dropTarget=0;fontColor=light-dark(#ff0000, #ededed);" vertex="1" parent="9aSAy0q2wmHGv-H-PZl3-56">
          <mxGeometry y="242" width="220" height="26" as="geometry" />
        </mxCell>
        <mxCell id="9aSAy0q2wmHGv-H-PZl3-74" value="" style="shape=partialRectangle;top=0;left=0;bottom=0;html=1;fillColor=none;align=left;verticalAlign=top;spacingLeft=4;spacingRight=4;whiteSpace=wrap;overflow=hidden;rotatable=0;points=[];portConstraint=eastwest;part=1;" vertex="1" connectable="0" parent="9aSAy0q2wmHGv-H-PZl3-73">
          <mxGeometry width="56" height="26" as="geometry" />
        </mxCell>
        <mxCell id="9aSAy0q2wmHGv-H-PZl3-75" value="STOP_SEQ" style="shape=partialRectangle;top=0;left=0;right=0;bottom=0;html=1;align=left;verticalAlign=top;fillColor=none;spacingLeft=60;spacingRight=4;whiteSpace=wrap;overflow=hidden;rotatable=0;points=[[0,0.5],[1,0.5]];portConstraint=eastwest;dropTarget=0;fontColor=light-dark(#ff0000, #ededed);labelBackgroundColor=light-dark(#fdf635, #ededed);" vertex="1" parent="9aSAy0q2wmHGv-H-PZl3-56">
          <mxGeometry y="268" width="220" height="26" as="geometry" />
        </mxCell>
        <mxCell id="9aSAy0q2wmHGv-H-PZl3-76" value="FK" style="shape=partialRectangle;top=0;left=0;bottom=0;html=1;fillColor=none;align=left;verticalAlign=top;spacingLeft=4;spacingRight=4;whiteSpace=wrap;overflow=hidden;rotatable=0;points=[];portConstraint=eastwest;part=1;" vertex="1" connectable="0" parent="9aSAy0q2wmHGv-H-PZl3-75">
          <mxGeometry width="56" height="26" as="geometry" />
        </mxCell>
        <mxCell id="9aSAy0q2wmHGv-H-PZl3-77" value="STOP_ID" style="shape=partialRectangle;top=0;left=0;right=0;bottom=0;html=1;align=left;verticalAlign=top;fillColor=none;spacingLeft=60;spacingRight=4;whiteSpace=wrap;overflow=hidden;rotatable=0;points=[[0,0.5],[1,0.5]];portConstraint=eastwest;dropTarget=0;fontColor=light-dark(#ff0000, #ededed);labelBackgroundColor=light-dark(#fdf635, #ededed);" vertex="1" parent="9aSAy0q2wmHGv-H-PZl3-56">
          <mxGeometry y="294" width="220" height="26" as="geometry" />
        </mxCell>
        <mxCell id="9aSAy0q2wmHGv-H-PZl3-78" value="FK" style="shape=partialRectangle;top=0;left=0;bottom=0;html=1;fillColor=none;align=left;verticalAlign=top;spacingLeft=4;spacingRight=4;whiteSpace=wrap;overflow=hidden;rotatable=0;points=[];portConstraint=eastwest;part=1;" vertex="1" connectable="0" parent="9aSAy0q2wmHGv-H-PZl3-77">
          <mxGeometry width="56" height="26" as="geometry" />
        </mxCell>
        <mxCell id="9aSAy0q2wmHGv-H-PZl3-79" value="POSICAO" style="swimlane;html=1;fontStyle=0;childLayout=stackLayout;horizontal=1;startSize=26;fillColor=#e0e0e0;horizontalStack=0;resizeParent=1;resizeLast=0;collapsible=1;marginBottom=0;swimlaneFillColor=#ffffff;align=center;rounded=0;shadow=0;comic=0;labelBackgroundColor=none;strokeWidth=1;fontFamily=Verdana;fontSize=14" vertex="1" parent="9aSAy0q2wmHGv-H-PZl3-1">
          <mxGeometry x="132" y="573" width="180" height="457" as="geometry" />
        </mxCell>
        <mxCell id="9aSAy0q2wmHGv-H-PZl3-80" value="HR" style="shape=partialRectangle;top=0;left=0;right=0;bottom=0;html=1;align=left;verticalAlign=middle;fillColor=none;spacingLeft=60;spacingRight=4;whiteSpace=wrap;overflow=hidden;rotatable=0;points=[[0,0.5],[1,0.5]];portConstraint=eastwest;dropTarget=0;fontStyle=5;" vertex="1" parent="9aSAy0q2wmHGv-H-PZl3-79">
          <mxGeometry y="26" width="180" height="30" as="geometry" />
        </mxCell>
        <mxCell id="9aSAy0q2wmHGv-H-PZl3-81" value="PK" style="shape=partialRectangle;fontStyle=1;top=0;left=0;bottom=0;html=1;fillColor=none;align=left;verticalAlign=middle;spacingLeft=4;spacingRight=4;whiteSpace=wrap;overflow=hidden;rotatable=0;points=[];portConstraint=eastwest;part=1;" vertex="1" connectable="0" parent="9aSAy0q2wmHGv-H-PZl3-80">
          <mxGeometry width="56" height="30" as="geometry" />
        </mxCell>
        <mxCell id="9aSAy0q2wmHGv-H-PZl3-82" value="VS_P" style="shape=partialRectangle;top=0;left=0;right=0;bottom=1;html=1;align=left;verticalAlign=middle;fillColor=none;spacingLeft=60;spacingRight=4;whiteSpace=wrap;overflow=hidden;rotatable=0;points=[[0,0.5],[1,0.5]];portConstraint=eastwest;dropTarget=0;fontStyle=5;strokeColor=default;" vertex="1" parent="9aSAy0q2wmHGv-H-PZl3-79">
          <mxGeometry y="56" width="180" height="30" as="geometry" />
        </mxCell>
        <mxCell id="9aSAy0q2wmHGv-H-PZl3-83" value="PK" style="shape=partialRectangle;fontStyle=1;top=0;left=0;bottom=0;html=1;fillColor=none;align=left;verticalAlign=middle;spacingLeft=4;spacingRight=4;whiteSpace=wrap;overflow=hidden;rotatable=0;points=[];portConstraint=eastwest;part=1;" vertex="1" connectable="0" parent="9aSAy0q2wmHGv-H-PZl3-82">
          <mxGeometry width="56" height="30" as="geometry" />
        </mxCell>
        <mxCell id="9aSAy0q2wmHGv-H-PZl3-84" value="L_CL" style="shape=partialRectangle;top=0;left=0;right=0;bottom=1;html=1;align=left;verticalAlign=middle;fillColor=none;spacingLeft=60;spacingRight=4;whiteSpace=wrap;overflow=hidden;rotatable=0;points=[[0,0.5],[1,0.5]];portConstraint=eastwest;dropTarget=0;fontStyle=5;strokeColor=none;" vertex="1" parent="9aSAy0q2wmHGv-H-PZl3-79">
          <mxGeometry y="86" width="180" height="30" as="geometry" />
        </mxCell>
        <mxCell id="9aSAy0q2wmHGv-H-PZl3-85" value="FK" style="shape=partialRectangle;fontStyle=1;top=0;left=0;bottom=0;html=1;fillColor=none;align=left;verticalAlign=middle;spacingLeft=4;spacingRight=4;whiteSpace=wrap;overflow=hidden;rotatable=0;points=[];portConstraint=eastwest;part=1;" vertex="1" connectable="0" parent="9aSAy0q2wmHGv-H-PZl3-84">
          <mxGeometry width="56" height="30" as="geometry" />
        </mxCell>
        <mxCell id="9aSAy0q2wmHGv-H-PZl3-86" value="STOP" style="swimlane;html=1;fontStyle=0;childLayout=stackLayout;horizontal=1;startSize=26;fillColor=#e0e0e0;horizontalStack=0;resizeParent=1;resizeLast=0;collapsible=1;marginBottom=0;swimlaneFillColor=#ffffff;align=center;rounded=0;shadow=0;comic=0;labelBackgroundColor=none;strokeWidth=1;fontFamily=Verdana;fontSize=14" vertex="1" parent="9aSAy0q2wmHGv-H-PZl3-1">
          <mxGeometry x="-977" y="177" width="160" height="144" as="geometry" />
        </mxCell>
        <mxCell id="9aSAy0q2wmHGv-H-PZl3-87" value="STOP_ID" style="shape=partialRectangle;top=0;left=0;right=0;bottom=1;html=1;align=left;verticalAlign=middle;fillColor=none;spacingLeft=34;spacingRight=4;whiteSpace=wrap;overflow=hidden;rotatable=0;points=[[0,0.5],[1,0.5]];portConstraint=eastwest;dropTarget=0;fontStyle=5;" vertex="1" parent="9aSAy0q2wmHGv-H-PZl3-86">
          <mxGeometry y="26" width="160" height="30" as="geometry" />
        </mxCell>
        <mxCell id="9aSAy0q2wmHGv-H-PZl3-88" value="PK" style="shape=partialRectangle;top=0;left=0;bottom=0;html=1;fillColor=none;align=left;verticalAlign=middle;spacingLeft=4;spacingRight=4;whiteSpace=wrap;overflow=hidden;rotatable=0;points=[];portConstraint=eastwest;part=1;" vertex="1" connectable="0" parent="9aSAy0q2wmHGv-H-PZl3-87">
          <mxGeometry width="30" height="30" as="geometry" />
        </mxCell>
        <mxCell id="9aSAy0q2wmHGv-H-PZl3-89" value="STOP_NAME" style="shape=partialRectangle;top=0;left=0;right=0;bottom=0;html=1;align=left;verticalAlign=top;fillColor=none;spacingLeft=34;spacingRight=4;whiteSpace=wrap;overflow=hidden;rotatable=0;points=[[0,0.5],[1,0.5]];portConstraint=eastwest;dropTarget=0;" vertex="1" parent="9aSAy0q2wmHGv-H-PZl3-86">
          <mxGeometry y="56" width="160" height="26" as="geometry" />
        </mxCell>
        <mxCell id="9aSAy0q2wmHGv-H-PZl3-90" value="" style="shape=partialRectangle;top=0;left=0;bottom=0;html=1;fillColor=none;align=left;verticalAlign=top;spacingLeft=4;spacingRight=4;whiteSpace=wrap;overflow=hidden;rotatable=0;points=[];portConstraint=eastwest;part=1;" vertex="1" connectable="0" parent="9aSAy0q2wmHGv-H-PZl3-89">
          <mxGeometry width="30" height="26" as="geometry" />
        </mxCell>
        <mxCell id="9aSAy0q2wmHGv-H-PZl3-91" value="STOP_LAT" style="shape=partialRectangle;top=0;left=0;right=0;bottom=0;html=1;align=left;verticalAlign=top;fillColor=none;spacingLeft=34;spacingRight=4;whiteSpace=wrap;overflow=hidden;rotatable=0;points=[[0,0.5],[1,0.5]];portConstraint=eastwest;dropTarget=0;" vertex="1" parent="9aSAy0q2wmHGv-H-PZl3-86">
          <mxGeometry y="82" width="160" height="26" as="geometry" />
        </mxCell>
        <mxCell id="9aSAy0q2wmHGv-H-PZl3-92" value="" style="shape=partialRectangle;top=0;left=0;bottom=0;html=1;fillColor=none;align=left;verticalAlign=top;spacingLeft=4;spacingRight=4;whiteSpace=wrap;overflow=hidden;rotatable=0;points=[];portConstraint=eastwest;part=1;" vertex="1" connectable="0" parent="9aSAy0q2wmHGv-H-PZl3-91">
          <mxGeometry width="30" height="26" as="geometry" />
        </mxCell>
        <mxCell id="9aSAy0q2wmHGv-H-PZl3-93" value="STOP_LON" style="shape=partialRectangle;top=0;left=0;right=0;bottom=0;html=1;align=left;verticalAlign=top;fillColor=none;spacingLeft=34;spacingRight=4;whiteSpace=wrap;overflow=hidden;rotatable=0;points=[[0,0.5],[1,0.5]];portConstraint=eastwest;dropTarget=0;" vertex="1" parent="9aSAy0q2wmHGv-H-PZl3-86">
          <mxGeometry y="108" width="160" height="26" as="geometry" />
        </mxCell>
        <mxCell id="9aSAy0q2wmHGv-H-PZl3-94" value="" style="shape=partialRectangle;top=0;left=0;bottom=0;html=1;fillColor=none;align=left;verticalAlign=top;spacingLeft=4;spacingRight=4;whiteSpace=wrap;overflow=hidden;rotatable=0;points=[];portConstraint=eastwest;part=1;" vertex="1" connectable="0" parent="9aSAy0q2wmHGv-H-PZl3-93">
          <mxGeometry width="30" height="26" as="geometry" />
        </mxCell>
        <mxCell id="9aSAy0q2wmHGv-H-PZl3-95" value="" style="shape=partialRectangle;top=0;left=0;right=0;bottom=0;html=1;align=left;verticalAlign=top;fillColor=none;spacingLeft=34;spacingRight=4;whiteSpace=wrap;overflow=hidden;rotatable=0;points=[[0,0.5],[1,0.5]];portConstraint=eastwest;dropTarget=0;" vertex="1" parent="9aSAy0q2wmHGv-H-PZl3-86">
          <mxGeometry y="134" width="160" height="10" as="geometry" />
        </mxCell>
        <mxCell id="9aSAy0q2wmHGv-H-PZl3-96" value="" style="shape=partialRectangle;top=0;left=0;bottom=0;html=1;fillColor=none;align=left;verticalAlign=top;spacingLeft=4;spacingRight=4;whiteSpace=wrap;overflow=hidden;rotatable=0;points=[];portConstraint=eastwest;part=1;" vertex="1" connectable="0" parent="9aSAy0q2wmHGv-H-PZl3-95">
          <mxGeometry width="30" height="10" as="geometry" />
        </mxCell>
        <mxCell id="9aSAy0q2wmHGv-H-PZl3-98" style="edgeStyle=orthogonalEdgeStyle;rounded=0;orthogonalLoop=1;jettySize=auto;html=1;exitX=1;exitY=0.5;exitDx=0;exitDy=0;entryX=0;entryY=0.5;entryDx=0;entryDy=0;startArrow=ERmany;startFill=0;endArrow=ERmandOne;endFill=0;" edge="1" parent="9aSAy0q2wmHGv-H-PZl3-1" source="9aSAy0q2wmHGv-H-PZl3-24" target="9aSAy0q2wmHGv-H-PZl3-35">
          <mxGeometry relative="1" as="geometry" />
        </mxCell>
        <mxCell id="9aSAy0q2wmHGv-H-PZl3-99" style="edgeStyle=orthogonalEdgeStyle;rounded=0;orthogonalLoop=1;jettySize=auto;html=1;exitX=1;exitY=0.5;exitDx=0;exitDy=0;entryX=0;entryY=0.5;entryDx=0;entryDy=0;startArrow=ERone;startFill=0;endArrow=ERmany;endFill=0;" edge="1" parent="9aSAy0q2wmHGv-H-PZl3-1" source="9aSAy0q2wmHGv-H-PZl3-26" target="9aSAy0q2wmHGv-H-PZl3-57">
          <mxGeometry relative="1" as="geometry" />
        </mxCell>
        <mxCell id="9aSAy0q2wmHGv-H-PZl3-100" value="PARADAS" style="swimlane;html=1;fontStyle=0;childLayout=stackLayout;horizontal=1;startSize=26;fillColor=#e0e0e0;horizontalStack=0;resizeParent=1;resizeLast=0;collapsible=1;marginBottom=0;swimlaneFillColor=#ffffff;align=center;rounded=0;shadow=0;comic=0;labelBackgroundColor=none;strokeWidth=1;fontFamily=Verdana;fontSize=14" vertex="1" parent="9aSAy0q2wmHGv-H-PZl3-1">
          <mxGeometry x="-640" y="1139" width="160" height="160" as="geometry" />
        </mxCell>
        <mxCell id="9aSAy0q2wmHGv-H-PZl3-101" value="CP" style="shape=partialRectangle;top=0;left=0;right=0;bottom=1;html=1;align=left;verticalAlign=middle;fillColor=none;spacingLeft=60;spacingRight=4;whiteSpace=wrap;overflow=hidden;rotatable=0;points=[[0,0.5],[1,0.5]];portConstraint=eastwest;dropTarget=0;fontStyle=5;" vertex="1" parent="9aSAy0q2wmHGv-H-PZl3-100">
          <mxGeometry y="26" width="160" height="30" as="geometry" />
        </mxCell>
        <mxCell id="9aSAy0q2wmHGv-H-PZl3-102" value="PK" style="shape=partialRectangle;fontStyle=1;top=0;left=0;bottom=0;html=1;fillColor=none;align=left;verticalAlign=middle;spacingLeft=4;spacingRight=4;whiteSpace=wrap;overflow=hidden;rotatable=0;points=[];portConstraint=eastwest;part=1;" vertex="1" connectable="0" parent="9aSAy0q2wmHGv-H-PZl3-101">
          <mxGeometry width="56" height="30" as="geometry" />
        </mxCell>
        <mxCell id="9aSAy0q2wmHGv-H-PZl3-103" value="NP" style="shape=partialRectangle;top=0;left=0;right=0;bottom=0;html=1;align=left;verticalAlign=top;fillColor=none;spacingLeft=60;spacingRight=4;whiteSpace=wrap;overflow=hidden;rotatable=0;points=[[0,0.5],[1,0.5]];portConstraint=eastwest;dropTarget=0;" vertex="1" parent="9aSAy0q2wmHGv-H-PZl3-100">
          <mxGeometry y="56" width="160" height="26" as="geometry" />
        </mxCell>
        <mxCell id="9aSAy0q2wmHGv-H-PZl3-104" value="" style="shape=partialRectangle;top=0;left=0;bottom=0;html=1;fillColor=none;align=left;verticalAlign=top;spacingLeft=4;spacingRight=4;whiteSpace=wrap;overflow=hidden;rotatable=0;points=[];portConstraint=eastwest;part=1;" vertex="1" connectable="0" parent="9aSAy0q2wmHGv-H-PZl3-103">
          <mxGeometry width="56" height="26" as="geometry" />
        </mxCell>
        <mxCell id="9aSAy0q2wmHGv-H-PZl3-105" value="ED" style="shape=partialRectangle;top=0;left=0;right=0;bottom=0;html=1;align=left;verticalAlign=top;fillColor=none;spacingLeft=60;spacingRight=4;whiteSpace=wrap;overflow=hidden;rotatable=0;points=[[0,0.5],[1,0.5]];portConstraint=eastwest;dropTarget=0;" vertex="1" parent="9aSAy0q2wmHGv-H-PZl3-100">
          <mxGeometry y="82" width="160" height="26" as="geometry" />
        </mxCell>
        <mxCell id="9aSAy0q2wmHGv-H-PZl3-106" value="" style="shape=partialRectangle;top=0;left=0;bottom=0;html=1;fillColor=none;align=left;verticalAlign=top;spacingLeft=4;spacingRight=4;whiteSpace=wrap;overflow=hidden;rotatable=0;points=[];portConstraint=eastwest;part=1;" vertex="1" connectable="0" parent="9aSAy0q2wmHGv-H-PZl3-105">
          <mxGeometry width="56" height="26" as="geometry" />
        </mxCell>
        <mxCell id="9aSAy0q2wmHGv-H-PZl3-107" value="PY" style="shape=partialRectangle;top=0;left=0;right=0;bottom=0;html=1;align=left;verticalAlign=top;fillColor=none;spacingLeft=60;spacingRight=4;whiteSpace=wrap;overflow=hidden;rotatable=0;points=[[0,0.5],[1,0.5]];portConstraint=eastwest;dropTarget=0;" vertex="1" parent="9aSAy0q2wmHGv-H-PZl3-100">
          <mxGeometry y="108" width="160" height="26" as="geometry" />
        </mxCell>
        <mxCell id="9aSAy0q2wmHGv-H-PZl3-108" value="" style="shape=partialRectangle;top=0;left=0;bottom=0;html=1;fillColor=none;align=left;verticalAlign=top;spacingLeft=4;spacingRight=4;whiteSpace=wrap;overflow=hidden;rotatable=0;points=[];portConstraint=eastwest;part=1;" vertex="1" connectable="0" parent="9aSAy0q2wmHGv-H-PZl3-107">
          <mxGeometry width="56" height="26" as="geometry" />
        </mxCell>
        <mxCell id="9aSAy0q2wmHGv-H-PZl3-109" value="PX" style="shape=partialRectangle;top=0;left=0;right=0;bottom=0;html=1;align=left;verticalAlign=top;fillColor=none;spacingLeft=60;spacingRight=4;whiteSpace=wrap;overflow=hidden;rotatable=0;points=[[0,0.5],[1,0.5]];portConstraint=eastwest;dropTarget=0;" vertex="1" parent="9aSAy0q2wmHGv-H-PZl3-100">
          <mxGeometry y="134" width="160" height="26" as="geometry" />
        </mxCell>
        <mxCell id="9aSAy0q2wmHGv-H-PZl3-110" value="" style="shape=partialRectangle;top=0;left=0;bottom=0;html=1;fillColor=none;align=left;verticalAlign=top;spacingLeft=4;spacingRight=4;whiteSpace=wrap;overflow=hidden;rotatable=0;points=[];portConstraint=eastwest;part=1;" vertex="1" connectable="0" parent="9aSAy0q2wmHGv-H-PZl3-109">
          <mxGeometry width="56" height="26" as="geometry" />
        </mxCell>
        <mxCell id="9aSAy0q2wmHGv-H-PZl3-111" value="VS_A" style="shape=partialRectangle;top=0;left=0;right=0;bottom=0;html=1;align=left;verticalAlign=top;fillColor=none;spacingLeft=60;spacingRight=4;whiteSpace=wrap;overflow=hidden;rotatable=0;points=[[0,0.5],[1,0.5]];portConstraint=eastwest;dropTarget=0;" vertex="1" parent="9aSAy0q2wmHGv-H-PZl3-1">
          <mxGeometry x="132" y="690" width="160" height="26" as="geometry" />
        </mxCell>
        <mxCell id="9aSAy0q2wmHGv-H-PZl3-112" value="" style="shape=partialRectangle;top=0;left=0;bottom=0;html=1;fillColor=none;align=left;verticalAlign=top;spacingLeft=4;spacingRight=4;whiteSpace=wrap;overflow=hidden;rotatable=0;points=[];portConstraint=eastwest;part=1;" vertex="1" connectable="0" parent="9aSAy0q2wmHGv-H-PZl3-111">
          <mxGeometry width="56" height="26" as="geometry" />
        </mxCell>
        <mxCell id="9aSAy0q2wmHGv-H-PZl3-113" value="VS_TA" style="shape=partialRectangle;top=0;left=0;right=0;bottom=0;html=1;align=left;verticalAlign=top;fillColor=none;spacingLeft=60;spacingRight=4;whiteSpace=wrap;overflow=hidden;rotatable=0;points=[[0,0.5],[1,0.5]];portConstraint=eastwest;dropTarget=0;" vertex="1" parent="9aSAy0q2wmHGv-H-PZl3-1">
          <mxGeometry x="132" y="716" width="160" height="26" as="geometry" />
        </mxCell>
        <mxCell id="9aSAy0q2wmHGv-H-PZl3-114" value="" style="shape=partialRectangle;top=0;left=0;bottom=0;html=1;fillColor=none;align=left;verticalAlign=top;spacingLeft=4;spacingRight=4;whiteSpace=wrap;overflow=hidden;rotatable=0;points=[];portConstraint=eastwest;part=1;" vertex="1" connectable="0" parent="9aSAy0q2wmHGv-H-PZl3-113">
          <mxGeometry width="56" height="26" as="geometry" />
        </mxCell>
        <mxCell id="9aSAy0q2wmHGv-H-PZl3-115" value="VS_PY" style="shape=partialRectangle;top=0;left=0;right=0;bottom=0;html=1;align=left;verticalAlign=top;fillColor=none;spacingLeft=60;spacingRight=4;whiteSpace=wrap;overflow=hidden;rotatable=0;points=[[0,0.5],[1,0.5]];portConstraint=eastwest;dropTarget=0;" vertex="1" parent="9aSAy0q2wmHGv-H-PZl3-1">
          <mxGeometry x="132" y="742" width="160" height="26" as="geometry" />
        </mxCell>
        <mxCell id="9aSAy0q2wmHGv-H-PZl3-116" value="" style="shape=partialRectangle;top=0;left=0;bottom=0;html=1;fillColor=none;align=left;verticalAlign=top;spacingLeft=4;spacingRight=4;whiteSpace=wrap;overflow=hidden;rotatable=0;points=[];portConstraint=eastwest;part=1;" vertex="1" connectable="0" parent="9aSAy0q2wmHGv-H-PZl3-115">
          <mxGeometry width="56" height="26" as="geometry" />
        </mxCell>
        <mxCell id="9aSAy0q2wmHGv-H-PZl3-117" value="VS_PX" style="shape=partialRectangle;top=0;left=0;right=0;bottom=0;html=1;align=left;verticalAlign=top;fillColor=none;spacingLeft=60;spacingRight=4;whiteSpace=wrap;overflow=hidden;rotatable=0;points=[[0,0.5],[1,0.5]];portConstraint=eastwest;dropTarget=0;" vertex="1" parent="9aSAy0q2wmHGv-H-PZl3-1">
          <mxGeometry x="132" y="768" width="160" height="26" as="geometry" />
        </mxCell>
        <mxCell id="9aSAy0q2wmHGv-H-PZl3-118" value="" style="shape=partialRectangle;top=0;left=0;bottom=0;html=1;fillColor=none;align=left;verticalAlign=top;spacingLeft=4;spacingRight=4;whiteSpace=wrap;overflow=hidden;rotatable=0;points=[];portConstraint=eastwest;part=1;" vertex="1" connectable="0" parent="9aSAy0q2wmHGv-H-PZl3-117">
          <mxGeometry width="56" height="26" as="geometry" />
        </mxCell>
        <mxCell id="9aSAy0q2wmHGv-H-PZl3-119" value="GARAGEM" style="swimlane;html=1;fontStyle=0;childLayout=stackLayout;horizontal=1;startSize=26;fillColor=#e0e0e0;horizontalStack=0;resizeParent=1;resizeLast=0;collapsible=1;marginBottom=0;swimlaneFillColor=#ffffff;align=center;rounded=0;shadow=0;comic=0;labelBackgroundColor=none;strokeWidth=1;fontFamily=Verdana;fontSize=14" vertex="1" parent="9aSAy0q2wmHGv-H-PZl3-1">
          <mxGeometry x="136" y="1614" width="189" height="446" as="geometry" />
        </mxCell>
        <mxCell id="9aSAy0q2wmHGv-H-PZl3-120" value="HR" style="shape=partialRectangle;top=0;left=0;right=0;bottom=0;html=1;align=left;verticalAlign=middle;fillColor=none;spacingLeft=60;spacingRight=4;whiteSpace=wrap;overflow=hidden;rotatable=0;points=[[0,0.5],[1,0.5]];portConstraint=eastwest;dropTarget=0;fontStyle=5;" vertex="1" parent="9aSAy0q2wmHGv-H-PZl3-119">
          <mxGeometry y="26" width="189" height="30" as="geometry" />
        </mxCell>
        <mxCell id="9aSAy0q2wmHGv-H-PZl3-121" value="PK" style="shape=partialRectangle;fontStyle=1;top=0;left=0;bottom=0;html=1;fillColor=none;align=left;verticalAlign=middle;spacingLeft=4;spacingRight=4;whiteSpace=wrap;overflow=hidden;rotatable=0;points=[];portConstraint=eastwest;part=1;" vertex="1" connectable="0" parent="9aSAy0q2wmHGv-H-PZl3-120">
          <mxGeometry width="56" height="30" as="geometry" />
        </mxCell>
        <mxCell id="9aSAy0q2wmHGv-H-PZl3-122" value="L_CL" style="shape=partialRectangle;top=0;left=0;right=0;bottom=1;html=1;align=left;verticalAlign=middle;fillColor=none;spacingLeft=60;spacingRight=4;whiteSpace=wrap;overflow=hidden;rotatable=0;points=[[0,0.5],[1,0.5]];portConstraint=eastwest;dropTarget=0;fontStyle=5;strokeColor=none;" vertex="1" parent="9aSAy0q2wmHGv-H-PZl3-119">
          <mxGeometry y="56" width="189" height="30" as="geometry" />
        </mxCell>
        <mxCell id="9aSAy0q2wmHGv-H-PZl3-123" value="PK,FK" style="shape=partialRectangle;fontStyle=1;top=0;left=0;bottom=0;html=1;fillColor=none;align=left;verticalAlign=middle;spacingLeft=4;spacingRight=4;whiteSpace=wrap;overflow=hidden;rotatable=0;points=[];portConstraint=eastwest;part=1;" vertex="1" connectable="0" parent="9aSAy0q2wmHGv-H-PZl3-122">
          <mxGeometry width="56" height="30" as="geometry" />
        </mxCell>
        <mxCell id="9aSAy0q2wmHGv-H-PZl3-124" value="VS_P" style="shape=partialRectangle;top=0;left=0;right=0;bottom=1;html=1;align=left;verticalAlign=middle;fillColor=none;spacingLeft=60;spacingRight=4;whiteSpace=wrap;overflow=hidden;rotatable=0;points=[[0,0.5],[1,0.5]];portConstraint=eastwest;dropTarget=0;fontStyle=5;" vertex="1" parent="9aSAy0q2wmHGv-H-PZl3-119">
          <mxGeometry y="86" width="189" height="30" as="geometry" />
        </mxCell>
        <mxCell id="9aSAy0q2wmHGv-H-PZl3-125" value="PK" style="shape=partialRectangle;fontStyle=1;top=0;left=0;bottom=0;html=1;fillColor=none;align=left;verticalAlign=middle;spacingLeft=4;spacingRight=4;whiteSpace=wrap;overflow=hidden;rotatable=0;points=[];portConstraint=eastwest;part=1;" vertex="1" connectable="0" parent="9aSAy0q2wmHGv-H-PZl3-124">
          <mxGeometry width="56" height="30" as="geometry" />
        </mxCell>
        <mxCell id="9aSAy0q2wmHGv-H-PZl3-126" value="VS_TA" style="shape=partialRectangle;top=0;left=0;right=0;bottom=1;html=1;align=left;verticalAlign=middle;fillColor=none;spacingLeft=60;spacingRight=4;whiteSpace=wrap;overflow=hidden;rotatable=0;points=[[0,0.5],[1,0.5]];portConstraint=eastwest;dropTarget=0;fontStyle=4;strokeColor=none;" vertex="1" parent="9aSAy0q2wmHGv-H-PZl3-119">
          <mxGeometry y="116" width="189" height="30" as="geometry" />
        </mxCell>
        <mxCell id="9aSAy0q2wmHGv-H-PZl3-127" value="" style="shape=partialRectangle;fontStyle=0;top=0;left=0;bottom=0;html=1;fillColor=none;align=left;verticalAlign=middle;spacingLeft=4;spacingRight=4;whiteSpace=wrap;overflow=hidden;rotatable=0;points=[];portConstraint=eastwest;part=1;" vertex="1" connectable="0" parent="9aSAy0q2wmHGv-H-PZl3-126">
          <mxGeometry width="56" height="30" as="geometry" />
        </mxCell>
        <mxCell id="9aSAy0q2wmHGv-H-PZl3-128" value="VS_PY" style="shape=partialRectangle;top=0;left=0;right=0;bottom=1;html=1;align=left;verticalAlign=middle;fillColor=none;spacingLeft=60;spacingRight=4;whiteSpace=wrap;overflow=hidden;rotatable=0;points=[[0,0.5],[1,0.5]];portConstraint=eastwest;dropTarget=0;fontStyle=4;strokeColor=none;" vertex="1" parent="9aSAy0q2wmHGv-H-PZl3-119">
          <mxGeometry y="146" width="189" height="30" as="geometry" />
        </mxCell>
        <mxCell id="9aSAy0q2wmHGv-H-PZl3-129" value="" style="shape=partialRectangle;fontStyle=0;top=0;left=0;bottom=0;html=1;fillColor=none;align=left;verticalAlign=middle;spacingLeft=4;spacingRight=4;whiteSpace=wrap;overflow=hidden;rotatable=0;points=[];portConstraint=eastwest;part=1;" vertex="1" connectable="0" parent="9aSAy0q2wmHGv-H-PZl3-128">
          <mxGeometry width="56" height="30" as="geometry" />
        </mxCell>
        <mxCell id="9aSAy0q2wmHGv-H-PZl3-130" value="VS_PX" style="shape=partialRectangle;top=0;left=0;right=0;bottom=1;html=1;align=left;verticalAlign=middle;fillColor=none;spacingLeft=60;spacingRight=4;whiteSpace=wrap;overflow=hidden;rotatable=0;points=[[0,0.5],[1,0.5]];portConstraint=eastwest;dropTarget=0;fontStyle=4;strokeColor=none;" vertex="1" parent="9aSAy0q2wmHGv-H-PZl3-119">
          <mxGeometry y="176" width="189" height="30" as="geometry" />
        </mxCell>
        <mxCell id="9aSAy0q2wmHGv-H-PZl3-131" value="" style="shape=partialRectangle;fontStyle=0;top=0;left=0;bottom=0;html=1;fillColor=none;align=left;verticalAlign=middle;spacingLeft=4;spacingRight=4;whiteSpace=wrap;overflow=hidden;rotatable=0;points=[];portConstraint=eastwest;part=1;" vertex="1" connectable="0" parent="9aSAy0q2wmHGv-H-PZl3-130">
          <mxGeometry width="56" height="30" as="geometry" />
        </mxCell>
        <mxCell id="9aSAy0q2wmHGv-H-PZl3-132" value="E_C" style="shape=partialRectangle;top=0;left=0;right=0;bottom=1;html=1;align=left;verticalAlign=middle;fillColor=none;spacingLeft=60;spacingRight=4;whiteSpace=wrap;overflow=hidden;rotatable=0;points=[[0,0.5],[1,0.5]];portConstraint=eastwest;dropTarget=0;fontStyle=4;strokeColor=none;fontColor=light-dark(#ff0000, #ededed);" vertex="1" parent="9aSAy0q2wmHGv-H-PZl3-119">
          <mxGeometry y="206" width="189" height="30" as="geometry" />
        </mxCell>
        <mxCell id="9aSAy0q2wmHGv-H-PZl3-133" value="" style="shape=partialRectangle;fontStyle=0;top=0;left=0;bottom=0;html=1;fillColor=none;align=left;verticalAlign=middle;spacingLeft=4;spacingRight=4;whiteSpace=wrap;overflow=hidden;rotatable=0;points=[];portConstraint=eastwest;part=1;" vertex="1" connectable="0" parent="9aSAy0q2wmHGv-H-PZl3-132">
          <mxGeometry width="56" height="30" as="geometry" />
        </mxCell>
        <mxCell id="9aSAy0q2wmHGv-H-PZl3-134" value="ROUTE_ID" style="shape=partialRectangle;top=0;left=0;right=0;bottom=1;html=1;align=left;verticalAlign=middle;fillColor=none;spacingLeft=60;spacingRight=4;whiteSpace=wrap;overflow=hidden;rotatable=0;points=[[0,0.5],[1,0.5]];portConstraint=eastwest;dropTarget=0;fontStyle=4;strokeColor=none;fontColor=light-dark(#ff0000, #ededed);" vertex="1" parent="9aSAy0q2wmHGv-H-PZl3-119">
          <mxGeometry y="236" width="189" height="30" as="geometry" />
        </mxCell>
        <mxCell id="9aSAy0q2wmHGv-H-PZl3-135" value="" style="shape=partialRectangle;fontStyle=0;top=0;left=0;bottom=0;html=1;fillColor=none;align=left;verticalAlign=middle;spacingLeft=4;spacingRight=4;whiteSpace=wrap;overflow=hidden;rotatable=0;points=[];portConstraint=eastwest;part=1;" vertex="1" connectable="0" parent="9aSAy0q2wmHGv-H-PZl3-134">
          <mxGeometry width="56" height="30" as="geometry" />
        </mxCell>
        <mxCell id="9aSAy0q2wmHGv-H-PZl3-136" value="ROUTE_LONGNAME" style="shape=partialRectangle;top=0;left=0;right=0;bottom=1;html=1;align=left;verticalAlign=middle;fillColor=none;spacingLeft=60;spacingRight=4;whiteSpace=wrap;overflow=hidden;rotatable=0;points=[[0,0.5],[1,0.5]];portConstraint=eastwest;dropTarget=0;fontStyle=4;strokeColor=none;fontColor=light-dark(#ff0000, #ededed);" vertex="1" parent="9aSAy0q2wmHGv-H-PZl3-119">
          <mxGeometry y="266" width="189" height="30" as="geometry" />
        </mxCell>
        <mxCell id="9aSAy0q2wmHGv-H-PZl3-137" value="" style="shape=partialRectangle;fontStyle=0;top=0;left=0;bottom=0;html=1;fillColor=none;align=left;verticalAlign=middle;spacingLeft=4;spacingRight=4;whiteSpace=wrap;overflow=hidden;rotatable=0;points=[];portConstraint=eastwest;part=1;" vertex="1" connectable="0" parent="9aSAy0q2wmHGv-H-PZl3-136">
          <mxGeometry width="56" height="30" as="geometry" />
        </mxCell>
        <mxCell id="9aSAy0q2wmHGv-H-PZl3-138" value="AGENCY" style="shape=partialRectangle;top=0;left=0;right=0;bottom=1;html=1;align=left;verticalAlign=middle;fillColor=none;spacingLeft=60;spacingRight=4;whiteSpace=wrap;overflow=hidden;rotatable=0;points=[[0,0.5],[1,0.5]];portConstraint=eastwest;dropTarget=0;fontStyle=4;strokeColor=none;fontColor=light-dark(#ff0000, #ededed);" vertex="1" parent="9aSAy0q2wmHGv-H-PZl3-119">
          <mxGeometry y="296" width="189" height="30" as="geometry" />
        </mxCell>
        <mxCell id="9aSAy0q2wmHGv-H-PZl3-139" value="" style="shape=partialRectangle;fontStyle=0;top=0;left=0;bottom=0;html=1;fillColor=none;align=left;verticalAlign=middle;spacingLeft=4;spacingRight=4;whiteSpace=wrap;overflow=hidden;rotatable=0;points=[];portConstraint=eastwest;part=1;" vertex="1" connectable="0" parent="9aSAy0q2wmHGv-H-PZl3-138">
          <mxGeometry width="56" height="30" as="geometry" />
        </mxCell>
        <mxCell id="9aSAy0q2wmHGv-H-PZl3-140" value="VS_T" style="shape=partialRectangle;top=0;left=0;right=0;bottom=0;html=1;align=left;verticalAlign=top;fillColor=none;spacingLeft=60;spacingRight=4;whiteSpace=wrap;overflow=hidden;rotatable=0;points=[[0,0.5],[1,0.5]];portConstraint=eastwest;dropTarget=0;" vertex="1" parent="9aSAy0q2wmHGv-H-PZl3-1">
          <mxGeometry x="126" y="1218" width="160" height="26" as="geometry" />
        </mxCell>
        <mxCell id="9aSAy0q2wmHGv-H-PZl3-141" value="" style="shape=partialRectangle;top=0;left=0;bottom=0;html=1;fillColor=none;align=left;verticalAlign=top;spacingLeft=4;spacingRight=4;whiteSpace=wrap;overflow=hidden;rotatable=0;points=[];portConstraint=eastwest;part=1;" vertex="1" connectable="0" parent="9aSAy0q2wmHGv-H-PZl3-140">
          <mxGeometry width="56" height="26" as="geometry" />
        </mxCell>
        <mxCell id="9aSAy0q2wmHGv-H-PZl3-142" value="VS_A" style="shape=partialRectangle;top=0;left=0;right=0;bottom=0;html=1;align=left;verticalAlign=top;fillColor=none;spacingLeft=60;spacingRight=4;whiteSpace=wrap;overflow=hidden;rotatable=0;points=[[0,0.5],[1,0.5]];portConstraint=eastwest;dropTarget=0;" vertex="1" parent="9aSAy0q2wmHGv-H-PZl3-1">
          <mxGeometry x="126" y="1244" width="160" height="26" as="geometry" />
        </mxCell>
        <mxCell id="9aSAy0q2wmHGv-H-PZl3-143" value="" style="shape=partialRectangle;top=0;left=0;bottom=0;html=1;fillColor=none;align=left;verticalAlign=top;spacingLeft=4;spacingRight=4;whiteSpace=wrap;overflow=hidden;rotatable=0;points=[];portConstraint=eastwest;part=1;" vertex="1" connectable="0" parent="9aSAy0q2wmHGv-H-PZl3-142">
          <mxGeometry width="56" height="26" as="geometry" />
        </mxCell>
        <mxCell id="9aSAy0q2wmHGv-H-PZl3-144" value="VS_TA" style="shape=partialRectangle;top=0;left=0;right=0;bottom=0;html=1;align=left;verticalAlign=top;fillColor=none;spacingLeft=60;spacingRight=4;whiteSpace=wrap;overflow=hidden;rotatable=0;points=[[0,0.5],[1,0.5]];portConstraint=eastwest;dropTarget=0;" vertex="1" parent="9aSAy0q2wmHGv-H-PZl3-1">
          <mxGeometry x="126" y="1270" width="160" height="26" as="geometry" />
        </mxCell>
        <mxCell id="9aSAy0q2wmHGv-H-PZl3-145" value="" style="shape=partialRectangle;top=0;left=0;bottom=0;html=1;fillColor=none;align=left;verticalAlign=top;spacingLeft=4;spacingRight=4;whiteSpace=wrap;overflow=hidden;rotatable=0;points=[];portConstraint=eastwest;part=1;" vertex="1" connectable="0" parent="9aSAy0q2wmHGv-H-PZl3-144">
          <mxGeometry width="56" height="26" as="geometry" />
        </mxCell>
        <mxCell id="9aSAy0q2wmHGv-H-PZl3-146" value="VS_PY" style="shape=partialRectangle;top=0;left=0;right=0;bottom=0;html=1;align=left;verticalAlign=top;fillColor=none;spacingLeft=60;spacingRight=4;whiteSpace=wrap;overflow=hidden;rotatable=0;points=[[0,0.5],[1,0.5]];portConstraint=eastwest;dropTarget=0;" vertex="1" parent="9aSAy0q2wmHGv-H-PZl3-1">
          <mxGeometry x="126" y="1296" width="160" height="26" as="geometry" />
        </mxCell>
        <mxCell id="9aSAy0q2wmHGv-H-PZl3-147" value="" style="shape=partialRectangle;top=0;left=0;bottom=0;html=1;fillColor=none;align=left;verticalAlign=top;spacingLeft=4;spacingRight=4;whiteSpace=wrap;overflow=hidden;rotatable=0;points=[];portConstraint=eastwest;part=1;" vertex="1" connectable="0" parent="9aSAy0q2wmHGv-H-PZl3-146">
          <mxGeometry width="56" height="26" as="geometry" />
        </mxCell>
        <mxCell id="9aSAy0q2wmHGv-H-PZl3-148" value="VS_PX" style="shape=partialRectangle;top=0;left=0;right=0;bottom=0;html=1;align=left;verticalAlign=top;fillColor=none;spacingLeft=60;spacingRight=4;whiteSpace=wrap;overflow=hidden;rotatable=0;points=[[0,0.5],[1,0.5]];portConstraint=eastwest;dropTarget=0;" vertex="1" parent="9aSAy0q2wmHGv-H-PZl3-1">
          <mxGeometry x="126" y="1322" width="160" height="26" as="geometry" />
        </mxCell>
        <mxCell id="9aSAy0q2wmHGv-H-PZl3-149" value="" style="shape=partialRectangle;top=0;left=0;bottom=0;html=1;fillColor=none;align=left;verticalAlign=top;spacingLeft=4;spacingRight=4;whiteSpace=wrap;overflow=hidden;rotatable=0;points=[];portConstraint=eastwest;part=1;" vertex="1" connectable="0" parent="9aSAy0q2wmHGv-H-PZl3-148">
          <mxGeometry width="56" height="26" as="geometry" />
        </mxCell>
        <mxCell id="9aSAy0q2wmHGv-H-PZl3-150" value="&lt;span style=&quot;background-color: light-dark(rgb(243, 238, 73), rgb(237, 237, 237));&quot;&gt;CHEGADA&lt;/span&gt;" style="swimlane;html=1;fontStyle=0;childLayout=stackLayout;horizontal=1;startSize=26;fillColor=#e0e0e0;horizontalStack=0;resizeParent=1;resizeLast=0;collapsible=1;marginBottom=0;swimlaneFillColor=#ffffff;align=center;rounded=0;shadow=0;comic=0;labelBackgroundColor=none;strokeWidth=1;fontFamily=Verdana;fontSize=14;fontColor=light-dark(#ff0000, #ededed);" vertex="1" parent="9aSAy0q2wmHGv-H-PZl3-1">
          <mxGeometry x="490" y="224" width="210" height="556" as="geometry" />
        </mxCell>
        <mxCell id="9aSAy0q2wmHGv-H-PZl3-151" value="VS_TA" style="shape=partialRectangle;top=0;left=0;right=0;bottom=0;html=1;align=left;verticalAlign=middle;fillColor=none;spacingLeft=60;spacingRight=4;whiteSpace=wrap;overflow=hidden;rotatable=0;points=[[0,0.5],[1,0.5]];portConstraint=eastwest;dropTarget=0;fontStyle=5;" vertex="1" parent="9aSAy0q2wmHGv-H-PZl3-150">
          <mxGeometry y="26" width="210" height="30" as="geometry" />
        </mxCell>
        <mxCell id="9aSAy0q2wmHGv-H-PZl3-152" value="PK" style="shape=partialRectangle;fontStyle=1;top=0;left=0;bottom=0;html=1;fillColor=none;align=left;verticalAlign=middle;spacingLeft=4;spacingRight=4;whiteSpace=wrap;overflow=hidden;rotatable=0;points=[];portConstraint=eastwest;part=1;" vertex="1" connectable="0" parent="9aSAy0q2wmHGv-H-PZl3-151">
          <mxGeometry width="56" height="30" as="geometry" />
        </mxCell>
        <mxCell id="9aSAy0q2wmHGv-H-PZl3-153" value="L_CL" style="shape=partialRectangle;top=0;left=0;right=0;bottom=0;html=1;align=left;verticalAlign=middle;fillColor=none;spacingLeft=60;spacingRight=4;whiteSpace=wrap;overflow=hidden;rotatable=0;points=[[0,0.5],[1,0.5]];portConstraint=eastwest;dropTarget=0;fontStyle=5;" vertex="1" parent="9aSAy0q2wmHGv-H-PZl3-150">
          <mxGeometry y="56" width="210" height="30" as="geometry" />
        </mxCell>
        <mxCell id="9aSAy0q2wmHGv-H-PZl3-154" value="PK,FK" style="shape=partialRectangle;fontStyle=1;top=0;left=0;bottom=0;html=1;fillColor=none;align=left;verticalAlign=middle;spacingLeft=4;spacingRight=4;whiteSpace=wrap;overflow=hidden;rotatable=0;points=[];portConstraint=eastwest;part=1;" vertex="1" connectable="0" parent="9aSAy0q2wmHGv-H-PZl3-153">
          <mxGeometry width="56" height="30" as="geometry" />
        </mxCell>
        <mxCell id="9aSAy0q2wmHGv-H-PZl3-155" value="HR" style="shape=partialRectangle;top=0;left=0;right=0;bottom=0;html=1;align=left;verticalAlign=top;fillColor=none;spacingLeft=60;spacingRight=4;whiteSpace=wrap;overflow=hidden;rotatable=0;points=[[0,0.5],[1,0.5]];portConstraint=eastwest;dropTarget=0;" vertex="1" parent="9aSAy0q2wmHGv-H-PZl3-1">
          <mxGeometry x="490" y="463" width="160" height="26" as="geometry" />
        </mxCell>
        <mxCell id="9aSAy0q2wmHGv-H-PZl3-156" value="" style="shape=partialRectangle;top=0;left=0;bottom=0;html=1;fillColor=none;align=left;verticalAlign=top;spacingLeft=4;spacingRight=4;whiteSpace=wrap;overflow=hidden;rotatable=0;points=[];portConstraint=eastwest;part=1;" vertex="1" connectable="0" parent="9aSAy0q2wmHGv-H-PZl3-155">
          <mxGeometry width="56" height="26" as="geometry" />
        </mxCell>
        <mxCell id="9aSAy0q2wmHGv-H-PZl3-157" value="VS_PY" style="shape=partialRectangle;top=0;left=0;right=0;bottom=0;html=1;align=left;verticalAlign=top;fillColor=none;spacingLeft=60;spacingRight=4;whiteSpace=wrap;overflow=hidden;rotatable=0;points=[[0,0.5],[1,0.5]];portConstraint=eastwest;dropTarget=0;" vertex="1" parent="9aSAy0q2wmHGv-H-PZl3-1">
          <mxGeometry x="490" y="489" width="160" height="26" as="geometry" />
        </mxCell>
        <mxCell id="9aSAy0q2wmHGv-H-PZl3-158" value="" style="shape=partialRectangle;top=0;left=0;bottom=0;html=1;fillColor=none;align=left;verticalAlign=top;spacingLeft=4;spacingRight=4;whiteSpace=wrap;overflow=hidden;rotatable=0;points=[];portConstraint=eastwest;part=1;" vertex="1" connectable="0" parent="9aSAy0q2wmHGv-H-PZl3-157">
          <mxGeometry width="56" height="26" as="geometry" />
        </mxCell>
        <mxCell id="9aSAy0q2wmHGv-H-PZl3-159" value="VS_PX" style="shape=partialRectangle;top=0;left=0;right=0;bottom=0;html=1;align=left;verticalAlign=top;fillColor=none;spacingLeft=60;spacingRight=4;whiteSpace=wrap;overflow=hidden;rotatable=0;points=[[0,0.5],[1,0.5]];portConstraint=eastwest;dropTarget=0;" vertex="1" parent="9aSAy0q2wmHGv-H-PZl3-1">
          <mxGeometry x="490" y="515" width="160" height="26" as="geometry" />
        </mxCell>
        <mxCell id="9aSAy0q2wmHGv-H-PZl3-160" value="" style="shape=partialRectangle;top=0;left=0;bottom=0;html=1;fillColor=none;align=left;verticalAlign=top;spacingLeft=4;spacingRight=4;whiteSpace=wrap;overflow=hidden;rotatable=0;points=[];portConstraint=eastwest;part=1;" vertex="1" connectable="0" parent="9aSAy0q2wmHGv-H-PZl3-159">
          <mxGeometry width="56" height="26" as="geometry" />
        </mxCell>
        <mxCell id="9aSAy0q2wmHGv-H-PZl3-161" value="CP" style="shape=partialRectangle;top=0;left=0;right=0;bottom=1;html=1;align=left;verticalAlign=middle;fillColor=none;spacingLeft=60;spacingRight=4;whiteSpace=wrap;overflow=hidden;rotatable=0;points=[[0,0.5],[1,0.5]];portConstraint=eastwest;dropTarget=0;fontStyle=5;strokeColor=none;" vertex="1" parent="9aSAy0q2wmHGv-H-PZl3-1">
          <mxGeometry x="490" y="310" width="180" height="30" as="geometry" />
        </mxCell>
        <mxCell id="9aSAy0q2wmHGv-H-PZl3-162" value="PK,FK" style="shape=partialRectangle;fontStyle=1;top=0;left=0;bottom=0;html=1;fillColor=none;align=left;verticalAlign=middle;spacingLeft=4;spacingRight=4;whiteSpace=wrap;overflow=hidden;rotatable=0;points=[];portConstraint=eastwest;part=1;" vertex="1" connectable="0" parent="9aSAy0q2wmHGv-H-PZl3-161">
          <mxGeometry width="56" height="30" as="geometry" />
        </mxCell>
        <mxCell id="9aSAy0q2wmHGv-H-PZl3-163" value="VS_P" style="shape=partialRectangle;top=0;left=0;right=0;bottom=1;html=1;align=left;verticalAlign=middle;fillColor=none;spacingLeft=60;spacingRight=4;whiteSpace=wrap;overflow=hidden;rotatable=0;points=[[0,0.5],[1,0.5]];portConstraint=eastwest;dropTarget=0;fontStyle=5;strokeColor=default;" vertex="1" parent="9aSAy0q2wmHGv-H-PZl3-1">
          <mxGeometry x="490" y="340" width="180" height="30" as="geometry" />
        </mxCell>
        <mxCell id="9aSAy0q2wmHGv-H-PZl3-164" value="PK" style="shape=partialRectangle;fontStyle=1;top=0;left=0;bottom=0;html=1;fillColor=none;align=left;verticalAlign=middle;spacingLeft=4;spacingRight=4;whiteSpace=wrap;overflow=hidden;rotatable=0;points=[];portConstraint=eastwest;part=1;" vertex="1" connectable="0" parent="9aSAy0q2wmHGv-H-PZl3-163">
          <mxGeometry width="56" height="30" as="geometry" />
        </mxCell>
        <mxCell id="9aSAy0q2wmHGv-H-PZl3-165" value="SHAPE_ID" style="shape=partialRectangle;top=0;left=0;right=0;bottom=1;html=1;align=left;verticalAlign=middle;fillColor=none;spacingLeft=60;spacingRight=4;whiteSpace=wrap;overflow=hidden;rotatable=0;points=[[0,0.5],[1,0.5]];portConstraint=eastwest;dropTarget=0;fontStyle=4;strokeColor=none;" vertex="1" parent="9aSAy0q2wmHGv-H-PZl3-1">
          <mxGeometry x="490" y="370" width="180" height="30" as="geometry" />
        </mxCell>
        <mxCell id="9aSAy0q2wmHGv-H-PZl3-166" value="FK" style="shape=partialRectangle;fontStyle=0;top=0;left=0;bottom=0;html=1;fillColor=none;align=left;verticalAlign=middle;spacingLeft=4;spacingRight=4;whiteSpace=wrap;overflow=hidden;rotatable=0;points=[];portConstraint=eastwest;part=1;" vertex="1" connectable="0" parent="9aSAy0q2wmHGv-H-PZl3-165">
          <mxGeometry width="56" height="30" as="geometry" />
        </mxCell>
        <mxCell id="9aSAy0q2wmHGv-H-PZl3-167" value="STOP_SEQUENCE" style="shape=partialRectangle;top=0;left=0;right=0;bottom=1;html=1;align=left;verticalAlign=middle;fillColor=none;spacingLeft=60;spacingRight=4;whiteSpace=wrap;overflow=hidden;rotatable=0;points=[[0,0.5],[1,0.5]];portConstraint=eastwest;dropTarget=0;fontStyle=4;strokeColor=none;" vertex="1" parent="9aSAy0q2wmHGv-H-PZl3-1">
          <mxGeometry x="490" y="434" width="180" height="30" as="geometry" />
        </mxCell>
        <mxCell id="9aSAy0q2wmHGv-H-PZl3-168" value="FK" style="shape=partialRectangle;fontStyle=0;top=0;left=0;bottom=0;html=1;fillColor=none;align=left;verticalAlign=middle;spacingLeft=4;spacingRight=4;whiteSpace=wrap;overflow=hidden;rotatable=0;points=[];portConstraint=eastwest;part=1;" vertex="1" connectable="0" parent="9aSAy0q2wmHGv-H-PZl3-167">
          <mxGeometry width="56" height="30" as="geometry" />
        </mxCell>
        <mxCell id="9aSAy0q2wmHGv-H-PZl3-169" style="edgeStyle=orthogonalEdgeStyle;rounded=0;orthogonalLoop=1;jettySize=auto;html=1;exitX=0;exitY=0.5;exitDx=0;exitDy=0;entryX=0;entryY=0.5;entryDx=0;entryDy=0;fontFamily=Helvetica;fontSize=12;fontColor=default;fontStyle=5;startArrow=ERone;startFill=0;endArrow=ERone;endFill=0;" edge="1" parent="9aSAy0q2wmHGv-H-PZl3-1" source="9aSAy0q2wmHGv-H-PZl3-101" target="9aSAy0q2wmHGv-H-PZl3-87">
          <mxGeometry relative="1" as="geometry" />
        </mxCell>
        <mxCell id="9aSAy0q2wmHGv-H-PZl3-170" style="edgeStyle=orthogonalEdgeStyle;rounded=0;orthogonalLoop=1;jettySize=auto;html=1;exitX=0;exitY=0.5;exitDx=0;exitDy=0;entryX=0;entryY=0.5;entryDx=0;entryDy=0;fontFamily=Helvetica;fontSize=12;fontColor=default;fontStyle=5;startArrow=ERmandOne;startFill=0;endArrow=ERmandOne;endFill=0;" edge="1" parent="9aSAy0q2wmHGv-H-PZl3-1" source="9aSAy0q2wmHGv-H-PZl3-42" target="9aSAy0q2wmHGv-H-PZl3-18">
          <mxGeometry relative="1" as="geometry" />
        </mxCell>
        <mxCell id="9aSAy0q2wmHGv-H-PZl3-171" value="VS_T" style="shape=partialRectangle;top=0;left=0;right=0;bottom=0;html=1;align=left;verticalAlign=top;fillColor=none;spacingLeft=60;spacingRight=4;whiteSpace=wrap;overflow=hidden;rotatable=0;points=[[0,0.5],[1,0.5]];portConstraint=eastwest;dropTarget=0;" vertex="1" parent="9aSAy0q2wmHGv-H-PZl3-1">
          <mxGeometry x="490" y="543" width="179" height="26" as="geometry" />
        </mxCell>
        <mxCell id="9aSAy0q2wmHGv-H-PZl3-172" value="" style="shape=partialRectangle;top=0;left=0;bottom=0;html=1;fillColor=none;align=left;verticalAlign=top;spacingLeft=4;spacingRight=4;whiteSpace=wrap;overflow=hidden;rotatable=0;points=[];portConstraint=eastwest;part=1;" vertex="1" connectable="0" parent="9aSAy0q2wmHGv-H-PZl3-171">
          <mxGeometry width="56" height="26" as="geometry" />
        </mxCell>
        <mxCell id="9aSAy0q2wmHGv-H-PZl3-173" value="VS_T_DESVIO" style="shape=partialRectangle;top=0;left=0;right=0;bottom=0;html=1;align=left;verticalAlign=top;fillColor=none;spacingLeft=60;spacingRight=4;whiteSpace=wrap;overflow=hidden;rotatable=0;points=[[0,0.5],[1,0.5]];portConstraint=eastwest;dropTarget=0;" vertex="1" parent="9aSAy0q2wmHGv-H-PZl3-1">
          <mxGeometry x="490" y="569" width="179" height="26" as="geometry" />
        </mxCell>
        <mxCell id="9aSAy0q2wmHGv-H-PZl3-174" value="" style="shape=partialRectangle;top=0;left=0;bottom=0;html=1;fillColor=none;align=left;verticalAlign=top;spacingLeft=4;spacingRight=4;whiteSpace=wrap;overflow=hidden;rotatable=0;points=[];portConstraint=eastwest;part=1;" vertex="1" connectable="0" parent="9aSAy0q2wmHGv-H-PZl3-173">
          <mxGeometry width="56" height="26" as="geometry" />
        </mxCell>
        <mxCell id="9aSAy0q2wmHGv-H-PZl3-175" value="ROUTE_LONGNAME" style="shape=partialRectangle;top=0;left=0;right=0;bottom=0;html=1;align=left;verticalAlign=top;fillColor=none;spacingLeft=60;spacingRight=4;whiteSpace=wrap;overflow=hidden;rotatable=0;points=[[0,0.5],[1,0.5]];portConstraint=eastwest;dropTarget=0;" vertex="1" parent="9aSAy0q2wmHGv-H-PZl3-1">
          <mxGeometry x="490" y="620" width="179" height="26" as="geometry" />
        </mxCell>
        <mxCell id="9aSAy0q2wmHGv-H-PZl3-176" value="" style="shape=partialRectangle;top=0;left=0;bottom=0;html=1;fillColor=none;align=left;verticalAlign=top;spacingLeft=4;spacingRight=4;whiteSpace=wrap;overflow=hidden;rotatable=0;points=[];portConstraint=eastwest;part=1;" vertex="1" connectable="0" parent="9aSAy0q2wmHGv-H-PZl3-175">
          <mxGeometry width="56" height="26" as="geometry" />
        </mxCell>
        <mxCell id="9aSAy0q2wmHGv-H-PZl3-177" value="ROUTE_ID" style="shape=partialRectangle;top=0;left=0;right=0;bottom=0;html=1;align=left;verticalAlign=top;fillColor=none;spacingLeft=60;spacingRight=4;whiteSpace=wrap;overflow=hidden;rotatable=0;points=[[0,0.5],[1,0.5]];portConstraint=eastwest;dropTarget=0;" vertex="1" parent="9aSAy0q2wmHGv-H-PZl3-1">
          <mxGeometry x="490" y="595" width="179" height="26" as="geometry" />
        </mxCell>
        <mxCell id="9aSAy0q2wmHGv-H-PZl3-178" value="" style="shape=partialRectangle;top=0;left=0;bottom=0;html=1;fillColor=none;align=left;verticalAlign=top;spacingLeft=4;spacingRight=4;whiteSpace=wrap;overflow=hidden;rotatable=0;points=[];portConstraint=eastwest;part=1;" vertex="1" connectable="0" parent="9aSAy0q2wmHGv-H-PZl3-177">
          <mxGeometry width="56" height="26" as="geometry" />
        </mxCell>
        <mxCell id="9aSAy0q2wmHGv-H-PZl3-179" value="SHAPE_PT_SEQUENCE" style="shape=partialRectangle;top=0;left=0;right=0;bottom=1;html=1;align=left;verticalAlign=middle;fillColor=none;spacingLeft=60;spacingRight=4;whiteSpace=wrap;overflow=hidden;rotatable=0;points=[[0,0.5],[1,0.5]];portConstraint=eastwest;dropTarget=0;fontStyle=4;strokeColor=none;shadow=0;" vertex="1" parent="9aSAy0q2wmHGv-H-PZl3-1">
          <mxGeometry x="490" y="402" width="180" height="30" as="geometry" />
        </mxCell>
        <mxCell id="9aSAy0q2wmHGv-H-PZl3-180" value="FK" style="shape=partialRectangle;fontStyle=0;top=0;left=0;bottom=0;html=1;fillColor=none;align=left;verticalAlign=middle;spacingLeft=4;spacingRight=4;whiteSpace=wrap;overflow=hidden;rotatable=0;points=[];portConstraint=eastwest;part=1;" vertex="1" connectable="0" parent="9aSAy0q2wmHGv-H-PZl3-179">
          <mxGeometry width="56" height="30.000000000000004" as="geometry" />
        </mxCell>
        <mxCell id="9aSAy0q2wmHGv-H-PZl3-181" value="AGENCY" style="shape=partialRectangle;top=0;left=0;right=0;bottom=0;html=1;align=left;verticalAlign=top;fillColor=none;spacingLeft=60;spacingRight=4;whiteSpace=wrap;overflow=hidden;rotatable=0;points=[[0,0.5],[1,0.5]];portConstraint=eastwest;dropTarget=0;" vertex="1" parent="9aSAy0q2wmHGv-H-PZl3-1">
          <mxGeometry x="490" y="646" width="210" height="26" as="geometry" />
        </mxCell>
        <mxCell id="9aSAy0q2wmHGv-H-PZl3-182" value="" style="shape=partialRectangle;top=0;left=0;bottom=0;html=1;fillColor=none;align=left;verticalAlign=top;spacingLeft=4;spacingRight=4;whiteSpace=wrap;overflow=hidden;rotatable=0;points=[];portConstraint=eastwest;part=1;" vertex="1" connectable="0" parent="9aSAy0q2wmHGv-H-PZl3-181">
          <mxGeometry width="56" height="26" as="geometry" />
        </mxCell>
        <mxCell id="9aSAy0q2wmHGv-H-PZl3-183" value="YEAR" style="shape=partialRectangle;top=0;left=0;right=0;bottom=0;html=1;align=left;verticalAlign=top;fillColor=none;spacingLeft=60;spacingRight=4;whiteSpace=wrap;overflow=hidden;rotatable=0;points=[[0,0.5],[1,0.5]];portConstraint=eastwest;dropTarget=0;" vertex="1" parent="9aSAy0q2wmHGv-H-PZl3-1">
          <mxGeometry x="490" y="673" width="210" height="26" as="geometry" />
        </mxCell>
        <mxCell id="9aSAy0q2wmHGv-H-PZl3-184" value="" style="shape=partialRectangle;top=0;left=0;bottom=0;html=1;fillColor=none;align=left;verticalAlign=top;spacingLeft=4;spacingRight=4;whiteSpace=wrap;overflow=hidden;rotatable=0;points=[];portConstraint=eastwest;part=1;" vertex="1" connectable="0" parent="9aSAy0q2wmHGv-H-PZl3-183">
          <mxGeometry width="56" height="26" as="geometry" />
        </mxCell>
        <mxCell id="9aSAy0q2wmHGv-H-PZl3-185" value="MONTH" style="shape=partialRectangle;top=0;left=0;right=0;bottom=0;html=1;align=left;verticalAlign=top;fillColor=none;spacingLeft=60;spacingRight=4;whiteSpace=wrap;overflow=hidden;rotatable=0;points=[[0,0.5],[1,0.5]];portConstraint=eastwest;dropTarget=0;" vertex="1" parent="9aSAy0q2wmHGv-H-PZl3-1">
          <mxGeometry x="490" y="700" width="210" height="26" as="geometry" />
        </mxCell>
        <mxCell id="9aSAy0q2wmHGv-H-PZl3-186" value="" style="shape=partialRectangle;top=0;left=0;bottom=0;html=1;fillColor=none;align=left;verticalAlign=top;spacingLeft=4;spacingRight=4;whiteSpace=wrap;overflow=hidden;rotatable=0;points=[];portConstraint=eastwest;part=1;" vertex="1" connectable="0" parent="9aSAy0q2wmHGv-H-PZl3-185">
          <mxGeometry width="56" height="26" as="geometry" />
        </mxCell>
        <mxCell id="9aSAy0q2wmHGv-H-PZl3-187" value="DATE" style="shape=partialRectangle;top=0;left=0;right=0;bottom=0;html=1;align=left;verticalAlign=top;fillColor=none;spacingLeft=60;spacingRight=4;whiteSpace=wrap;overflow=hidden;rotatable=0;points=[[0,0.5],[1,0.5]];portConstraint=eastwest;dropTarget=0;" vertex="1" parent="9aSAy0q2wmHGv-H-PZl3-1">
          <mxGeometry x="490" y="727" width="210" height="26" as="geometry" />
        </mxCell>
        <mxCell id="9aSAy0q2wmHGv-H-PZl3-188" value="" style="shape=partialRectangle;top=0;left=0;bottom=0;html=1;fillColor=none;align=left;verticalAlign=top;spacingLeft=4;spacingRight=4;whiteSpace=wrap;overflow=hidden;rotatable=0;points=[];portConstraint=eastwest;part=1;" vertex="1" connectable="0" parent="9aSAy0q2wmHGv-H-PZl3-187">
          <mxGeometry width="56" height="26" as="geometry" />
        </mxCell>
        <mxCell id="9aSAy0q2wmHGv-H-PZl3-189" value="WEEK_DAY" style="shape=partialRectangle;top=0;left=0;right=0;bottom=0;html=1;align=left;verticalAlign=top;fillColor=none;spacingLeft=60;spacingRight=4;whiteSpace=wrap;overflow=hidden;rotatable=0;points=[[0,0.5],[1,0.5]];portConstraint=eastwest;dropTarget=0;" vertex="1" parent="9aSAy0q2wmHGv-H-PZl3-1">
          <mxGeometry x="490" y="753" width="210" height="26" as="geometry" />
        </mxCell>
        <mxCell id="9aSAy0q2wmHGv-H-PZl3-190" value="" style="shape=partialRectangle;top=0;left=0;bottom=0;html=1;fillColor=none;align=left;verticalAlign=top;spacingLeft=4;spacingRight=4;whiteSpace=wrap;overflow=hidden;rotatable=0;points=[];portConstraint=eastwest;part=1;" vertex="1" connectable="0" parent="9aSAy0q2wmHGv-H-PZl3-189">
          <mxGeometry width="56" height="26" as="geometry" />
        </mxCell>
        <mxCell id="9aSAy0q2wmHGv-H-PZl3-191" value="PREVISAO" style="swimlane;html=1;fontStyle=0;childLayout=stackLayout;horizontal=1;startSize=26;fillColor=#e0e0e0;horizontalStack=0;resizeParent=1;resizeLast=0;collapsible=1;marginBottom=0;swimlaneFillColor=#ffffff;align=center;rounded=0;shadow=0;comic=0;labelBackgroundColor=none;strokeWidth=1;fontFamily=Verdana;fontSize=14" vertex="1" parent="9aSAy0q2wmHGv-H-PZl3-1">
          <mxGeometry x="136" y="1080" width="160" height="490" as="geometry" />
        </mxCell>
        <mxCell id="9aSAy0q2wmHGv-H-PZl3-192" value="HR" style="shape=partialRectangle;top=0;left=0;right=0;bottom=0;html=1;align=left;verticalAlign=middle;fillColor=none;spacingLeft=60;spacingRight=4;whiteSpace=wrap;overflow=hidden;rotatable=0;points=[[0,0.5],[1,0.5]];portConstraint=eastwest;dropTarget=0;fontStyle=5;" vertex="1" parent="9aSAy0q2wmHGv-H-PZl3-191">
          <mxGeometry y="26" width="160" height="30" as="geometry" />
        </mxCell>
        <mxCell id="9aSAy0q2wmHGv-H-PZl3-193" value="PK" style="shape=partialRectangle;fontStyle=1;top=0;left=0;bottom=0;html=1;fillColor=none;align=left;verticalAlign=middle;spacingLeft=4;spacingRight=4;whiteSpace=wrap;overflow=hidden;rotatable=0;points=[];portConstraint=eastwest;part=1;" vertex="1" connectable="0" parent="9aSAy0q2wmHGv-H-PZl3-192">
          <mxGeometry width="56" height="30" as="geometry" />
        </mxCell>
        <mxCell id="9aSAy0q2wmHGv-H-PZl3-194" value="L_CL" style="shape=partialRectangle;top=0;left=0;right=0;bottom=1;html=1;align=left;verticalAlign=middle;fillColor=none;spacingLeft=60;spacingRight=4;whiteSpace=wrap;overflow=hidden;rotatable=0;points=[[0,0.5],[1,0.5]];portConstraint=eastwest;dropTarget=0;fontStyle=5;strokeColor=none;" vertex="1" parent="9aSAy0q2wmHGv-H-PZl3-191">
          <mxGeometry y="56" width="160" height="30" as="geometry" />
        </mxCell>
        <mxCell id="9aSAy0q2wmHGv-H-PZl3-195" value="PK,FK" style="shape=partialRectangle;fontStyle=1;top=0;left=0;bottom=0;html=1;fillColor=none;align=left;verticalAlign=middle;spacingLeft=4;spacingRight=4;whiteSpace=wrap;overflow=hidden;rotatable=0;points=[];portConstraint=eastwest;part=1;" vertex="1" connectable="0" parent="9aSAy0q2wmHGv-H-PZl3-194">
          <mxGeometry width="56" height="30" as="geometry" />
        </mxCell>
        <mxCell id="9aSAy0q2wmHGv-H-PZl3-196" value="P_CP" style="shape=partialRectangle;top=0;left=0;right=0;bottom=1;html=1;align=left;verticalAlign=middle;fillColor=none;spacingLeft=60;spacingRight=4;whiteSpace=wrap;overflow=hidden;rotatable=0;points=[[0,0.5],[1,0.5]];portConstraint=eastwest;dropTarget=0;fontStyle=5;strokeColor=none;" vertex="1" parent="9aSAy0q2wmHGv-H-PZl3-191">
          <mxGeometry y="86" width="160" height="30" as="geometry" />
        </mxCell>
        <mxCell id="9aSAy0q2wmHGv-H-PZl3-197" value="PK,FK" style="shape=partialRectangle;fontStyle=1;top=0;left=0;bottom=0;html=1;fillColor=none;align=left;verticalAlign=middle;spacingLeft=4;spacingRight=4;whiteSpace=wrap;overflow=hidden;rotatable=0;points=[];portConstraint=eastwest;part=1;" vertex="1" connectable="0" parent="9aSAy0q2wmHGv-H-PZl3-196">
          <mxGeometry width="56" height="30" as="geometry" />
        </mxCell>
        <mxCell id="9aSAy0q2wmHGv-H-PZl3-198" value="VS_P" style="shape=partialRectangle;top=0;left=0;right=0;bottom=1;html=1;align=left;verticalAlign=middle;fillColor=none;spacingLeft=60;spacingRight=4;whiteSpace=wrap;overflow=hidden;rotatable=0;points=[[0,0.5],[1,0.5]];portConstraint=eastwest;dropTarget=0;fontStyle=5;" vertex="1" parent="9aSAy0q2wmHGv-H-PZl3-191">
          <mxGeometry y="116" width="160" height="30" as="geometry" />
        </mxCell>
        <mxCell id="9aSAy0q2wmHGv-H-PZl3-199" value="PK" style="shape=partialRectangle;fontStyle=1;top=0;left=0;bottom=0;html=1;fillColor=none;align=left;verticalAlign=middle;spacingLeft=4;spacingRight=4;whiteSpace=wrap;overflow=hidden;rotatable=0;points=[];portConstraint=eastwest;part=1;" vertex="1" connectable="0" parent="9aSAy0q2wmHGv-H-PZl3-198">
          <mxGeometry width="56" height="30" as="geometry" />
        </mxCell>
        <mxCell id="9aSAy0q2wmHGv-H-PZl3-200" value="VS_T" style="shape=partialRectangle;top=0;left=0;right=0;bottom=0;html=1;align=left;verticalAlign=top;fillColor=none;spacingLeft=60;spacingRight=4;whiteSpace=wrap;overflow=hidden;rotatable=0;points=[[0,0.5],[1,0.5]];portConstraint=eastwest;dropTarget=0;" vertex="1" parent="9aSAy0q2wmHGv-H-PZl3-1">
          <mxGeometry x="136" y="1228" width="160" height="26" as="geometry" />
        </mxCell>
        <mxCell id="9aSAy0q2wmHGv-H-PZl3-201" value="" style="shape=partialRectangle;top=0;left=0;bottom=0;html=1;fillColor=none;align=left;verticalAlign=top;spacingLeft=4;spacingRight=4;whiteSpace=wrap;overflow=hidden;rotatable=0;points=[];portConstraint=eastwest;part=1;" vertex="1" connectable="0" parent="9aSAy0q2wmHGv-H-PZl3-200">
          <mxGeometry width="56" height="26" as="geometry" />
        </mxCell>
        <mxCell id="9aSAy0q2wmHGv-H-PZl3-202" value="VS_A" style="shape=partialRectangle;top=0;left=0;right=0;bottom=0;html=1;align=left;verticalAlign=top;fillColor=none;spacingLeft=60;spacingRight=4;whiteSpace=wrap;overflow=hidden;rotatable=0;points=[[0,0.5],[1,0.5]];portConstraint=eastwest;dropTarget=0;" vertex="1" parent="9aSAy0q2wmHGv-H-PZl3-1">
          <mxGeometry x="136" y="1254" width="160" height="26" as="geometry" />
        </mxCell>
        <mxCell id="9aSAy0q2wmHGv-H-PZl3-203" value="" style="shape=partialRectangle;top=0;left=0;bottom=0;html=1;fillColor=none;align=left;verticalAlign=top;spacingLeft=4;spacingRight=4;whiteSpace=wrap;overflow=hidden;rotatable=0;points=[];portConstraint=eastwest;part=1;" vertex="1" connectable="0" parent="9aSAy0q2wmHGv-H-PZl3-202">
          <mxGeometry width="56" height="26" as="geometry" />
        </mxCell>
        <mxCell id="9aSAy0q2wmHGv-H-PZl3-204" value="VS_TA" style="shape=partialRectangle;top=0;left=0;right=0;bottom=0;html=1;align=left;verticalAlign=top;fillColor=none;spacingLeft=60;spacingRight=4;whiteSpace=wrap;overflow=hidden;rotatable=0;points=[[0,0.5],[1,0.5]];portConstraint=eastwest;dropTarget=0;" vertex="1" parent="9aSAy0q2wmHGv-H-PZl3-1">
          <mxGeometry x="136" y="1280" width="160" height="26" as="geometry" />
        </mxCell>
        <mxCell id="9aSAy0q2wmHGv-H-PZl3-205" value="" style="shape=partialRectangle;top=0;left=0;bottom=0;html=1;fillColor=none;align=left;verticalAlign=top;spacingLeft=4;spacingRight=4;whiteSpace=wrap;overflow=hidden;rotatable=0;points=[];portConstraint=eastwest;part=1;" vertex="1" connectable="0" parent="9aSAy0q2wmHGv-H-PZl3-204">
          <mxGeometry width="56" height="26" as="geometry" />
        </mxCell>
        <mxCell id="9aSAy0q2wmHGv-H-PZl3-206" value="VS_PY" style="shape=partialRectangle;top=0;left=0;right=0;bottom=0;html=1;align=left;verticalAlign=top;fillColor=none;spacingLeft=60;spacingRight=4;whiteSpace=wrap;overflow=hidden;rotatable=0;points=[[0,0.5],[1,0.5]];portConstraint=eastwest;dropTarget=0;" vertex="1" parent="9aSAy0q2wmHGv-H-PZl3-1">
          <mxGeometry x="136" y="1306" width="160" height="26" as="geometry" />
        </mxCell>
        <mxCell id="9aSAy0q2wmHGv-H-PZl3-207" value="" style="shape=partialRectangle;top=0;left=0;bottom=0;html=1;fillColor=none;align=left;verticalAlign=top;spacingLeft=4;spacingRight=4;whiteSpace=wrap;overflow=hidden;rotatable=0;points=[];portConstraint=eastwest;part=1;" vertex="1" connectable="0" parent="9aSAy0q2wmHGv-H-PZl3-206">
          <mxGeometry width="56" height="26" as="geometry" />
        </mxCell>
        <mxCell id="9aSAy0q2wmHGv-H-PZl3-208" value="VS_PX" style="shape=partialRectangle;top=0;left=0;right=0;bottom=0;html=1;align=left;verticalAlign=top;fillColor=none;spacingLeft=60;spacingRight=4;whiteSpace=wrap;overflow=hidden;rotatable=0;points=[[0,0.5],[1,0.5]];portConstraint=eastwest;dropTarget=0;" vertex="1" parent="9aSAy0q2wmHGv-H-PZl3-1">
          <mxGeometry x="136" y="1332" width="160" height="26" as="geometry" />
        </mxCell>
        <mxCell id="9aSAy0q2wmHGv-H-PZl3-209" value="" style="shape=partialRectangle;top=0;left=0;bottom=0;html=1;fillColor=none;align=left;verticalAlign=top;spacingLeft=4;spacingRight=4;whiteSpace=wrap;overflow=hidden;rotatable=0;points=[];portConstraint=eastwest;part=1;" vertex="1" connectable="0" parent="9aSAy0q2wmHGv-H-PZl3-208">
          <mxGeometry width="56" height="26" as="geometry" />
        </mxCell>
        <mxCell id="9aSAy0q2wmHGv-H-PZl3-210" value="EMPRESAS" style="swimlane;html=1;fontStyle=0;childLayout=stackLayout;horizontal=1;startSize=26;fillColor=#e0e0e0;horizontalStack=0;resizeParent=1;resizeLast=0;collapsible=1;marginBottom=0;swimlaneFillColor=#ffffff;align=center;rounded=0;shadow=0;comic=0;labelBackgroundColor=none;strokeWidth=1;fontFamily=Verdana;fontSize=14" vertex="1" parent="9aSAy0q2wmHGv-H-PZl3-1">
          <mxGeometry x="-109" y="1794" width="160" height="110" as="geometry" />
        </mxCell>
        <mxCell id="9aSAy0q2wmHGv-H-PZl3-211" value="E_C" style="shape=partialRectangle;top=0;left=0;right=0;bottom=1;html=1;align=left;verticalAlign=middle;fillColor=none;spacingLeft=60;spacingRight=4;whiteSpace=wrap;overflow=hidden;rotatable=0;points=[[0,0.5],[1,0.5]];portConstraint=eastwest;dropTarget=0;fontStyle=5;" vertex="1" parent="9aSAy0q2wmHGv-H-PZl3-210">
          <mxGeometry y="26" width="160" height="30" as="geometry" />
        </mxCell>
        <mxCell id="9aSAy0q2wmHGv-H-PZl3-212" value="PK,FK" style="shape=partialRectangle;fontStyle=1;top=0;left=0;bottom=0;html=1;fillColor=none;align=left;verticalAlign=middle;spacingLeft=4;spacingRight=4;whiteSpace=wrap;overflow=hidden;rotatable=0;points=[];portConstraint=eastwest;part=1;" vertex="1" connectable="0" parent="9aSAy0q2wmHGv-H-PZl3-211">
          <mxGeometry width="56" height="30" as="geometry" />
        </mxCell>
        <mxCell id="9aSAy0q2wmHGv-H-PZl3-213" value="E_N" style="shape=partialRectangle;top=0;left=0;right=0;bottom=0;html=1;align=left;verticalAlign=top;fillColor=none;spacingLeft=60;spacingRight=4;whiteSpace=wrap;overflow=hidden;rotatable=0;points=[[0,0.5],[1,0.5]];portConstraint=eastwest;dropTarget=0;" vertex="1" parent="9aSAy0q2wmHGv-H-PZl3-210">
          <mxGeometry y="56" width="160" height="26" as="geometry" />
        </mxCell>
        <mxCell id="9aSAy0q2wmHGv-H-PZl3-214" value="" style="shape=partialRectangle;top=0;left=0;bottom=0;html=1;fillColor=none;align=left;verticalAlign=top;spacingLeft=4;spacingRight=4;whiteSpace=wrap;overflow=hidden;rotatable=0;points=[];portConstraint=eastwest;part=1;" vertex="1" connectable="0" parent="9aSAy0q2wmHGv-H-PZl3-213">
          <mxGeometry width="56" height="26" as="geometry" />
        </mxCell>
        <mxCell id="9aSAy0q2wmHGv-H-PZl3-215" value="E_A" style="shape=partialRectangle;top=0;left=0;right=0;bottom=0;html=1;align=left;verticalAlign=top;fillColor=none;spacingLeft=60;spacingRight=4;whiteSpace=wrap;overflow=hidden;rotatable=0;points=[[0,0.5],[1,0.5]];portConstraint=eastwest;dropTarget=0;" vertex="1" parent="9aSAy0q2wmHGv-H-PZl3-210">
          <mxGeometry y="82" width="160" height="26" as="geometry" />
        </mxCell>
        <mxCell id="9aSAy0q2wmHGv-H-PZl3-216" value="" style="shape=partialRectangle;top=0;left=0;bottom=0;html=1;fillColor=none;align=left;verticalAlign=top;spacingLeft=4;spacingRight=4;whiteSpace=wrap;overflow=hidden;rotatable=0;points=[];portConstraint=eastwest;part=1;" vertex="1" connectable="0" parent="9aSAy0q2wmHGv-H-PZl3-215">
          <mxGeometry width="56" height="26" as="geometry" />
        </mxCell>
        <mxCell id="9aSAy0q2wmHGv-H-PZl3-219" value="ROUTE_LONG_NAME" style="shape=partialRectangle;top=0;left=0;right=0;bottom=0;html=1;align=left;verticalAlign=top;fillColor=none;spacingLeft=60;spacingRight=4;whiteSpace=wrap;overflow=hidden;rotatable=0;points=[[0,0.5],[1,0.5]];portConstraint=eastwest;dropTarget=0;fontColor=light-dark(#ff0000, #ededed);" vertex="1" parent="9aSAy0q2wmHGv-H-PZl3-1">
          <mxGeometry x="132" y="821" width="160" height="26" as="geometry" />
        </mxCell>
        <mxCell id="9aSAy0q2wmHGv-H-PZl3-220" value="" style="shape=partialRectangle;top=0;left=0;bottom=0;html=1;fillColor=none;align=left;verticalAlign=top;spacingLeft=4;spacingRight=4;whiteSpace=wrap;overflow=hidden;rotatable=0;points=[];portConstraint=eastwest;part=1;" vertex="1" connectable="0" parent="9aSAy0q2wmHGv-H-PZl3-219">
          <mxGeometry width="56" height="26" as="geometry" />
        </mxCell>
        <mxCell id="9aSAy0q2wmHGv-H-PZl3-221" value="&amp;nbsp; &amp;nbsp;AGENCY" style="shape=partialRectangle;top=0;left=0;right=0;bottom=0;html=1;align=left;verticalAlign=top;fillColor=none;spacingLeft=60;spacingRight=4;whiteSpace=wrap;overflow=hidden;rotatable=0;points=[[0,0.5],[1,0.5]];portConstraint=eastwest;dropTarget=0;fontColor=light-dark(#ff0000, #ededed);" vertex="1" parent="9aSAy0q2wmHGv-H-PZl3-1">
          <mxGeometry x="125" y="847" width="180" height="26" as="geometry" />
        </mxCell>
        <mxCell id="9aSAy0q2wmHGv-H-PZl3-222" value="" style="shape=partialRectangle;top=0;left=0;bottom=0;html=1;fillColor=none;align=left;verticalAlign=top;spacingLeft=4;spacingRight=4;whiteSpace=wrap;overflow=hidden;rotatable=0;points=[];portConstraint=eastwest;part=1;" vertex="1" connectable="0" parent="9aSAy0q2wmHGv-H-PZl3-221">
          <mxGeometry width="63" height="26" as="geometry" />
        </mxCell>
        <mxCell id="9aSAy0q2wmHGv-H-PZl3-223" value="ROUTE_ID" style="shape=partialRectangle;top=0;left=0;right=0;bottom=0;html=1;align=left;verticalAlign=top;fillColor=none;spacingLeft=60;spacingRight=4;whiteSpace=wrap;overflow=hidden;rotatable=0;points=[[0,0.5],[1,0.5]];portConstraint=eastwest;dropTarget=0;fontColor=light-dark(#fa0000, #ededed);" vertex="1" parent="9aSAy0q2wmHGv-H-PZl3-1">
          <mxGeometry x="136" y="1356" width="160" height="26" as="geometry" />
        </mxCell>
        <mxCell id="9aSAy0q2wmHGv-H-PZl3-224" value="" style="shape=partialRectangle;top=0;left=0;bottom=0;html=1;fillColor=none;align=left;verticalAlign=top;spacingLeft=4;spacingRight=4;whiteSpace=wrap;overflow=hidden;rotatable=0;points=[];portConstraint=eastwest;part=1;" vertex="1" connectable="0" parent="9aSAy0q2wmHGv-H-PZl3-223">
          <mxGeometry width="56" height="26" as="geometry" />
        </mxCell>
        <mxCell id="9aSAy0q2wmHGv-H-PZl3-225" style="edgeStyle=orthogonalEdgeStyle;rounded=0;orthogonalLoop=1;jettySize=auto;html=1;exitX=1;exitY=0.5;exitDx=0;exitDy=0;entryX=0;entryY=0.5;entryDx=0;entryDy=0;startArrow=ERmandOne;startFill=0;endArrow=ERmany;endFill=0;" edge="1" parent="9aSAy0q2wmHGv-H-PZl3-1" source="9aSAy0q2wmHGv-H-PZl3-87" target="9aSAy0q2wmHGv-H-PZl3-7">
          <mxGeometry relative="1" as="geometry" />
        </mxCell>
        <mxCell id="9aSAy0q2wmHGv-H-PZl3-235" style="edgeStyle=orthogonalEdgeStyle;rounded=0;orthogonalLoop=1;jettySize=auto;html=1;exitX=1;exitY=0.5;exitDx=0;exitDy=0;entryX=0;entryY=0.5;entryDx=0;entryDy=0;startArrow=ERone;startFill=0;endArrow=ERmany;endFill=0;" edge="1" parent="9aSAy0q2wmHGv-H-PZl3-1" source="9aSAy0q2wmHGv-H-PZl3-42" target="9aSAy0q2wmHGv-H-PZl3-194">
          <mxGeometry relative="1" as="geometry" />
        </mxCell>
        <mxCell id="9aSAy0q2wmHGv-H-PZl3-238" style="edgeStyle=orthogonalEdgeStyle;rounded=0;orthogonalLoop=1;jettySize=auto;html=1;exitX=1;exitY=0.5;exitDx=0;exitDy=0;entryX=0;entryY=0.5;entryDx=0;entryDy=0;startArrow=ERone;startFill=0;endArrow=ERmany;endFill=0;" edge="1" parent="9aSAy0q2wmHGv-H-PZl3-1" source="9aSAy0q2wmHGv-H-PZl3-42" target="9aSAy0q2wmHGv-H-PZl3-84">
          <mxGeometry relative="1" as="geometry" />
        </mxCell>
        <mxCell id="9aSAy0q2wmHGv-H-PZl3-239" style="edgeStyle=orthogonalEdgeStyle;rounded=0;orthogonalLoop=1;jettySize=auto;html=1;exitX=1;exitY=0.5;exitDx=0;exitDy=0;entryX=0;entryY=0.5;entryDx=0;entryDy=0;startArrow=ERone;startFill=0;endArrow=ERmany;endFill=0;" edge="1" parent="9aSAy0q2wmHGv-H-PZl3-1" source="9aSAy0q2wmHGv-H-PZl3-42" target="9aSAy0q2wmHGv-H-PZl3-122">
          <mxGeometry relative="1" as="geometry">
            <Array as="points">
              <mxPoint x="-120" y="673" />
              <mxPoint x="-120" y="1649" />
            </Array>
          </mxGeometry>
        </mxCell>
        <mxCell id="PqZRvzGmin4IrYVELWev-0" style="edgeStyle=orthogonalEdgeStyle;rounded=0;orthogonalLoop=1;jettySize=auto;html=1;startArrow=ERone;startFill=0;endArrow=ERmany;endFill=0;" edge="1" parent="9aSAy0q2wmHGv-H-PZl3-1" source="9aSAy0q2wmHGv-H-PZl3-101" target="9aSAy0q2wmHGv-H-PZl3-196">
          <mxGeometry relative="1" as="geometry" />
        </mxCell>
        <mxCell id="PqZRvzGmin4IrYVELWev-2" style="edgeStyle=orthogonalEdgeStyle;rounded=0;orthogonalLoop=1;jettySize=auto;html=1;entryX=1;entryY=0.5;entryDx=0;entryDy=0;startArrow=ERone;startFill=0;endArrow=ERmany;endFill=0;" edge="1" parent="9aSAy0q2wmHGv-H-PZl3-1" source="9aSAy0q2wmHGv-H-PZl3-18" target="9aSAy0q2wmHGv-H-PZl3-3">
          <mxGeometry relative="1" as="geometry" />
        </mxCell>
        <mxCell id="PqZRvzGmin4IrYVELWev-3" style="edgeStyle=orthogonalEdgeStyle;rounded=0;orthogonalLoop=1;jettySize=auto;html=1;startArrow=ERone;startFill=0;endArrow=ERmany;endFill=0;" edge="1" parent="9aSAy0q2wmHGv-H-PZl3-1" source="9aSAy0q2wmHGv-H-PZl3-211" target="9aSAy0q2wmHGv-H-PZl3-132">
          <mxGeometry relative="1" as="geometry" />
        </mxCell>
        <mxCell id="PqZRvzGmin4IrYVELWev-13" value="ROUTE_ID" style="shape=partialRectangle;top=0;left=0;right=0;bottom=0;html=1;align=left;verticalAlign=top;fillColor=none;spacingLeft=60;spacingRight=4;whiteSpace=wrap;overflow=hidden;rotatable=0;points=[[0,0.5],[1,0.5]];portConstraint=eastwest;dropTarget=0;fontColor=light-dark(#ff0000, #ededed);" vertex="1" parent="9aSAy0q2wmHGv-H-PZl3-1">
          <mxGeometry x="132" y="794" width="160" height="26" as="geometry" />
        </mxCell>
        <mxCell id="PqZRvzGmin4IrYVELWev-14" value="" style="shape=partialRectangle;top=0;left=0;bottom=0;html=1;fillColor=none;align=left;verticalAlign=top;spacingLeft=4;spacingRight=4;whiteSpace=wrap;overflow=hidden;rotatable=0;points=[];portConstraint=eastwest;part=1;" vertex="1" connectable="0" parent="PqZRvzGmin4IrYVELWev-13">
          <mxGeometry width="56" height="26" as="geometry" />
        </mxCell>
        <mxCell id="PqZRvzGmin4IrYVELWev-15" value="YEAR" style="shape=partialRectangle;top=0;left=0;right=0;bottom=0;html=1;align=left;verticalAlign=top;fillColor=none;spacingLeft=60;spacingRight=4;whiteSpace=wrap;overflow=hidden;rotatable=0;points=[[0,0.5],[1,0.5]];portConstraint=eastwest;dropTarget=0;fontColor=light-dark(#ff0000, #ededed);" vertex="1" parent="9aSAy0q2wmHGv-H-PZl3-1">
          <mxGeometry x="132" y="873" width="160" height="26" as="geometry" />
        </mxCell>
        <mxCell id="PqZRvzGmin4IrYVELWev-16" value="" style="shape=partialRectangle;top=0;left=0;bottom=0;html=1;fillColor=none;align=left;verticalAlign=top;spacingLeft=4;spacingRight=4;whiteSpace=wrap;overflow=hidden;rotatable=0;points=[];portConstraint=eastwest;part=1;" vertex="1" connectable="0" parent="PqZRvzGmin4IrYVELWev-15">
          <mxGeometry width="56" height="26" as="geometry" />
        </mxCell>
        <mxCell id="PqZRvzGmin4IrYVELWev-17" value="&amp;nbsp; &amp;nbsp; &amp;nbsp;PROC_DATE_TIME" style="shape=partialRectangle;top=0;left=0;right=0;bottom=0;html=1;align=left;verticalAlign=top;fillColor=none;spacingLeft=60;spacingRight=4;whiteSpace=wrap;overflow=hidden;rotatable=0;points=[[0,0.5],[1,0.5]];portConstraint=eastwest;dropTarget=0;fontColor=light-dark(#ff0000, #ededed);" vertex="1" parent="9aSAy0q2wmHGv-H-PZl3-1">
          <mxGeometry x="116" y="976" width="205" height="26" as="geometry" />
        </mxCell>
        <mxCell id="PqZRvzGmin4IrYVELWev-18" value="" style="shape=partialRectangle;top=0;left=0;bottom=0;html=1;fillColor=none;align=left;verticalAlign=top;spacingLeft=4;spacingRight=4;whiteSpace=wrap;overflow=hidden;rotatable=0;points=[];portConstraint=eastwest;part=1;" vertex="1" connectable="0" parent="PqZRvzGmin4IrYVELWev-17">
          <mxGeometry width="71.75" height="26" as="geometry" />
        </mxCell>
        <mxCell id="PqZRvzGmin4IrYVELWev-21" value="ROUTE_LONG_NAME" style="shape=partialRectangle;top=0;left=0;right=0;bottom=0;html=1;align=left;verticalAlign=top;fillColor=none;spacingLeft=60;spacingRight=4;whiteSpace=wrap;overflow=hidden;rotatable=0;points=[[0,0.5],[1,0.5]];portConstraint=eastwest;dropTarget=0;fontColor=light-dark(#fa0000, #ededed);" vertex="1" parent="9aSAy0q2wmHGv-H-PZl3-1">
          <mxGeometry x="136" y="1381" width="160" height="26" as="geometry" />
        </mxCell>
        <mxCell id="PqZRvzGmin4IrYVELWev-22" value="" style="shape=partialRectangle;top=0;left=0;bottom=0;html=1;fillColor=none;align=left;verticalAlign=top;spacingLeft=4;spacingRight=4;whiteSpace=wrap;overflow=hidden;rotatable=0;points=[];portConstraint=eastwest;part=1;" vertex="1" connectable="0" parent="PqZRvzGmin4IrYVELWev-21">
          <mxGeometry width="56" height="26" as="geometry" />
        </mxCell>
        <mxCell id="PqZRvzGmin4IrYVELWev-27" value="AGENCY" style="shape=partialRectangle;top=0;left=0;right=0;bottom=0;html=1;align=left;verticalAlign=top;fillColor=none;spacingLeft=60;spacingRight=4;whiteSpace=wrap;overflow=hidden;rotatable=0;points=[[0,0.5],[1,0.5]];portConstraint=eastwest;dropTarget=0;fontColor=light-dark(#fa0000, #ededed);" vertex="1" parent="9aSAy0q2wmHGv-H-PZl3-1">
          <mxGeometry x="136" y="1407" width="160" height="26" as="geometry" />
        </mxCell>
        <mxCell id="PqZRvzGmin4IrYVELWev-28" value="" style="shape=partialRectangle;top=0;left=0;bottom=0;html=1;fillColor=none;align=left;verticalAlign=top;spacingLeft=4;spacingRight=4;whiteSpace=wrap;overflow=hidden;rotatable=0;points=[];portConstraint=eastwest;part=1;" vertex="1" connectable="0" parent="PqZRvzGmin4IrYVELWev-27">
          <mxGeometry width="56" height="26" as="geometry" />
        </mxCell>
        <mxCell id="PqZRvzGmin4IrYVELWev-29" value="YEAR" style="shape=partialRectangle;top=0;left=0;right=0;bottom=0;html=1;align=left;verticalAlign=top;fillColor=none;spacingLeft=60;spacingRight=4;whiteSpace=wrap;overflow=hidden;rotatable=0;points=[[0,0.5],[1,0.5]];portConstraint=eastwest;dropTarget=0;fontColor=light-dark(#fa0000, #ededed);" vertex="1" parent="9aSAy0q2wmHGv-H-PZl3-1">
          <mxGeometry x="136" y="1432" width="160" height="26" as="geometry" />
        </mxCell>
        <mxCell id="PqZRvzGmin4IrYVELWev-30" value="" style="shape=partialRectangle;top=0;left=0;bottom=0;html=1;fillColor=none;align=left;verticalAlign=top;spacingLeft=4;spacingRight=4;whiteSpace=wrap;overflow=hidden;rotatable=0;points=[];portConstraint=eastwest;part=1;" vertex="1" connectable="0" parent="PqZRvzGmin4IrYVELWev-29">
          <mxGeometry width="56" height="26" as="geometry" />
        </mxCell>
        <mxCell id="PqZRvzGmin4IrYVELWev-31" value="MONTH" style="shape=partialRectangle;top=0;left=0;right=0;bottom=0;html=1;align=left;verticalAlign=top;fillColor=none;spacingLeft=60;spacingRight=4;whiteSpace=wrap;overflow=hidden;rotatable=0;points=[[0,0.5],[1,0.5]];portConstraint=eastwest;dropTarget=0;fontColor=light-dark(#ff0000, #ededed);" vertex="1" parent="9aSAy0q2wmHGv-H-PZl3-1">
          <mxGeometry x="132" y="899" width="160" height="26" as="geometry" />
        </mxCell>
        <mxCell id="PqZRvzGmin4IrYVELWev-32" value="" style="shape=partialRectangle;top=0;left=0;bottom=0;html=1;fillColor=none;align=left;verticalAlign=top;spacingLeft=4;spacingRight=4;whiteSpace=wrap;overflow=hidden;rotatable=0;points=[];portConstraint=eastwest;part=1;" vertex="1" connectable="0" parent="PqZRvzGmin4IrYVELWev-31">
          <mxGeometry width="56" height="26" as="geometry" />
        </mxCell>
        <mxCell id="PqZRvzGmin4IrYVELWev-33" value="DATE" style="shape=partialRectangle;top=0;left=0;right=0;bottom=0;html=1;align=left;verticalAlign=top;fillColor=none;spacingLeft=60;spacingRight=4;whiteSpace=wrap;overflow=hidden;rotatable=0;points=[[0,0.5],[1,0.5]];portConstraint=eastwest;dropTarget=0;fontColor=light-dark(#ff0000, #ededed);" vertex="1" parent="9aSAy0q2wmHGv-H-PZl3-1">
          <mxGeometry x="132" y="925" width="160" height="26" as="geometry" />
        </mxCell>
        <mxCell id="PqZRvzGmin4IrYVELWev-34" value="" style="shape=partialRectangle;top=0;left=0;bottom=0;html=1;fillColor=none;align=left;verticalAlign=top;spacingLeft=4;spacingRight=4;whiteSpace=wrap;overflow=hidden;rotatable=0;points=[];portConstraint=eastwest;part=1;" vertex="1" connectable="0" parent="PqZRvzGmin4IrYVELWev-33">
          <mxGeometry width="56" height="26" as="geometry" />
        </mxCell>
        <mxCell id="PqZRvzGmin4IrYVELWev-35" value="WEEK_DAY" style="shape=partialRectangle;top=0;left=0;right=0;bottom=0;html=1;align=left;verticalAlign=top;fillColor=none;spacingLeft=60;spacingRight=4;whiteSpace=wrap;overflow=hidden;rotatable=0;points=[[0,0.5],[1,0.5]];portConstraint=eastwest;dropTarget=0;fontColor=light-dark(#ff0000, #ededed);" vertex="1" parent="9aSAy0q2wmHGv-H-PZl3-1">
          <mxGeometry x="132" y="951" width="160" height="26" as="geometry" />
        </mxCell>
        <mxCell id="PqZRvzGmin4IrYVELWev-36" value="" style="shape=partialRectangle;top=0;left=0;bottom=0;html=1;fillColor=none;align=left;verticalAlign=top;spacingLeft=4;spacingRight=4;whiteSpace=wrap;overflow=hidden;rotatable=0;points=[];portConstraint=eastwest;part=1;" vertex="1" connectable="0" parent="PqZRvzGmin4IrYVELWev-35">
          <mxGeometry width="56" height="26" as="geometry" />
        </mxCell>
        <mxCell id="PqZRvzGmin4IrYVELWev-37" value="MONTH" style="shape=partialRectangle;top=0;left=0;right=0;bottom=0;html=1;align=left;verticalAlign=top;fillColor=none;spacingLeft=60;spacingRight=4;whiteSpace=wrap;overflow=hidden;rotatable=0;points=[[0,0.5],[1,0.5]];portConstraint=eastwest;dropTarget=0;fontColor=light-dark(#fa0000, #ededed);" vertex="1" parent="9aSAy0q2wmHGv-H-PZl3-1">
          <mxGeometry x="136" y="1456" width="160" height="26" as="geometry" />
        </mxCell>
        <mxCell id="PqZRvzGmin4IrYVELWev-38" value="" style="shape=partialRectangle;top=0;left=0;bottom=0;html=1;fillColor=none;align=left;verticalAlign=top;spacingLeft=4;spacingRight=4;whiteSpace=wrap;overflow=hidden;rotatable=0;points=[];portConstraint=eastwest;part=1;" vertex="1" connectable="0" parent="PqZRvzGmin4IrYVELWev-37">
          <mxGeometry width="56" height="26" as="geometry" />
        </mxCell>
        <mxCell id="PqZRvzGmin4IrYVELWev-39" value="DATE" style="shape=partialRectangle;top=0;left=0;right=0;bottom=0;html=1;align=left;verticalAlign=top;fillColor=none;spacingLeft=60;spacingRight=4;whiteSpace=wrap;overflow=hidden;rotatable=0;points=[[0,0.5],[1,0.5]];portConstraint=eastwest;dropTarget=0;fontColor=light-dark(#fa0000, #ededed);" vertex="1" parent="9aSAy0q2wmHGv-H-PZl3-1">
          <mxGeometry x="136" y="1480" width="160" height="26" as="geometry" />
        </mxCell>
        <mxCell id="PqZRvzGmin4IrYVELWev-40" value="" style="shape=partialRectangle;top=0;left=0;bottom=0;html=1;fillColor=none;align=left;verticalAlign=top;spacingLeft=4;spacingRight=4;whiteSpace=wrap;overflow=hidden;rotatable=0;points=[];portConstraint=eastwest;part=1;" vertex="1" connectable="0" parent="PqZRvzGmin4IrYVELWev-39">
          <mxGeometry width="56" height="26" as="geometry" />
        </mxCell>
        <mxCell id="PqZRvzGmin4IrYVELWev-41" value="WEEK_DAY" style="shape=partialRectangle;top=0;left=0;right=0;bottom=0;html=1;align=left;verticalAlign=top;fillColor=none;spacingLeft=60;spacingRight=4;whiteSpace=wrap;overflow=hidden;rotatable=0;points=[[0,0.5],[1,0.5]];portConstraint=eastwest;dropTarget=0;fontColor=light-dark(#fa0000, #ededed);" vertex="1" parent="9aSAy0q2wmHGv-H-PZl3-1">
          <mxGeometry x="136" y="1506" width="160" height="26" as="geometry" />
        </mxCell>
        <mxCell id="PqZRvzGmin4IrYVELWev-42" value="" style="shape=partialRectangle;top=0;left=0;bottom=0;html=1;fillColor=none;align=left;verticalAlign=top;spacingLeft=4;spacingRight=4;whiteSpace=wrap;overflow=hidden;rotatable=0;points=[];portConstraint=eastwest;part=1;" vertex="1" connectable="0" parent="PqZRvzGmin4IrYVELWev-41">
          <mxGeometry width="56" height="26" as="geometry" />
        </mxCell>
        <mxCell id="PqZRvzGmin4IrYVELWev-43" value="YEAR" style="shape=partialRectangle;top=0;left=0;right=0;bottom=0;html=1;align=left;verticalAlign=top;fillColor=none;spacingLeft=60;spacingRight=4;whiteSpace=wrap;overflow=hidden;rotatable=0;points=[[0,0.5],[1,0.5]];portConstraint=eastwest;dropTarget=0;fontColor=light-dark(#fa0000, #ededed);" vertex="1" parent="9aSAy0q2wmHGv-H-PZl3-1">
          <mxGeometry x="136" y="1939" width="160" height="26" as="geometry" />
        </mxCell>
        <mxCell id="PqZRvzGmin4IrYVELWev-44" value="" style="shape=partialRectangle;top=0;left=0;bottom=0;html=1;fillColor=none;align=left;verticalAlign=top;spacingLeft=4;spacingRight=4;whiteSpace=wrap;overflow=hidden;rotatable=0;points=[];portConstraint=eastwest;part=1;" vertex="1" connectable="0" parent="PqZRvzGmin4IrYVELWev-43">
          <mxGeometry width="56" height="26" as="geometry" />
        </mxCell>
        <mxCell id="PqZRvzGmin4IrYVELWev-45" value="MONTH" style="shape=partialRectangle;top=0;left=0;right=0;bottom=0;html=1;align=left;verticalAlign=top;fillColor=none;spacingLeft=60;spacingRight=4;whiteSpace=wrap;overflow=hidden;rotatable=0;points=[[0,0.5],[1,0.5]];portConstraint=eastwest;dropTarget=0;fontColor=light-dark(#fa0000, #ededed);" vertex="1" parent="9aSAy0q2wmHGv-H-PZl3-1">
          <mxGeometry x="136" y="1963" width="160" height="26" as="geometry" />
        </mxCell>
        <mxCell id="PqZRvzGmin4IrYVELWev-46" value="" style="shape=partialRectangle;top=0;left=0;bottom=0;html=1;fillColor=none;align=left;verticalAlign=top;spacingLeft=4;spacingRight=4;whiteSpace=wrap;overflow=hidden;rotatable=0;points=[];portConstraint=eastwest;part=1;" vertex="1" connectable="0" parent="PqZRvzGmin4IrYVELWev-45">
          <mxGeometry width="56" height="26" as="geometry" />
        </mxCell>
        <mxCell id="PqZRvzGmin4IrYVELWev-47" value="DATE" style="shape=partialRectangle;top=0;left=0;right=0;bottom=0;html=1;align=left;verticalAlign=top;fillColor=none;spacingLeft=60;spacingRight=4;whiteSpace=wrap;overflow=hidden;rotatable=0;points=[[0,0.5],[1,0.5]];portConstraint=eastwest;dropTarget=0;fontColor=light-dark(#fa0000, #ededed);" vertex="1" parent="9aSAy0q2wmHGv-H-PZl3-1">
          <mxGeometry x="136" y="1987" width="160" height="26" as="geometry" />
        </mxCell>
        <mxCell id="PqZRvzGmin4IrYVELWev-48" value="" style="shape=partialRectangle;top=0;left=0;bottom=0;html=1;fillColor=none;align=left;verticalAlign=top;spacingLeft=4;spacingRight=4;whiteSpace=wrap;overflow=hidden;rotatable=0;points=[];portConstraint=eastwest;part=1;" vertex="1" connectable="0" parent="PqZRvzGmin4IrYVELWev-47">
          <mxGeometry width="56" height="26" as="geometry" />
        </mxCell>
        <mxCell id="PqZRvzGmin4IrYVELWev-49" value="WEEK_DAY" style="shape=partialRectangle;top=0;left=0;right=0;bottom=0;html=1;align=left;verticalAlign=top;fillColor=none;spacingLeft=60;spacingRight=4;whiteSpace=wrap;overflow=hidden;rotatable=0;points=[[0,0.5],[1,0.5]];portConstraint=eastwest;dropTarget=0;fontColor=light-dark(#fa0000, #ededed);" vertex="1" parent="9aSAy0q2wmHGv-H-PZl3-1">
          <mxGeometry x="136" y="2013" width="160" height="26" as="geometry" />
        </mxCell>
        <mxCell id="PqZRvzGmin4IrYVELWev-50" value="" style="shape=partialRectangle;top=0;left=0;bottom=0;html=1;fillColor=none;align=left;verticalAlign=top;spacingLeft=4;spacingRight=4;whiteSpace=wrap;overflow=hidden;rotatable=0;points=[];portConstraint=eastwest;part=1;" vertex="1" connectable="0" parent="PqZRvzGmin4IrYVELWev-49">
          <mxGeometry width="56" height="26" as="geometry" />
        </mxCell>
      </root>
    </mxGraphModel>
  </diagram>
</mxfile>
